M48
; DRILL file {KiCad 8.0.6} date 2024-11-21T14:39:27+0100
; FORMAT={-:-/ absolute / metric / decimal}
; #@! TF.CreationDate,2024-11-21T14:39:27+01:00
; #@! TF.GenerationSoftware,Kicad,Pcbnew,8.0.6
; #@! TF.FileFunction,MixedPlating,1,2
FMAT,2
METRIC
; #@! TA.AperFunction,Plated,PTH,ComponentDrill
T1C1.100
; #@! TA.AperFunction,NonPlated,NPTH,ComponentDrill
T2C1.500
; #@! TA.AperFunction,NonPlated,NPTH,ComponentDrill
T3C1.800
%
G90
G05
T1
X107.75Y70.15
X107.75Y67.61
X107.75Y65.07
X107.75Y62.53
X107.75Y59.99
X107.75Y57.45
X107.75Y54.91
X107.75Y52.37
X107.75Y49.83
X107.75Y47.29
X107.75Y44.75
X107.15Y18.31
X107.15Y15.77
X107.15Y13.23
X107.15Y10.69
X100.25Y66.25
X100.25Y26.75
X99.5Y74.75
X99.5Y72.21
X97.4Y18.31
X97.4Y15.77
X97.4Y13.23
X97.4Y10.69
X95.5Y74.75
X95.5Y72.21
X91.5Y74.75
X91.5Y72.21
X87.5Y74.75
X87.5Y72.21
X82.75Y66.25
X82.75Y26.75
X77.5Y39.0
X77.5Y36.46
X69.79Y71.2
X69.79Y68.66
X69.79Y66.12
X69.79Y63.58
X69.79Y61.04
X69.79Y58.5
X69.79Y55.96
X69.79Y53.42
X69.79Y50.88
X69.79Y48.34
X64.04Y39.0
X61.5Y39.0
X58.96Y39.0
X56.42Y39.0
X49.33Y71.2
X49.33Y68.66
X49.33Y66.12
X49.33Y63.58
X49.33Y61.04
X49.33Y58.5
X49.33Y55.96
X49.33Y53.42
X49.33Y50.88
X49.33Y48.34
X46.79Y71.2
X46.79Y68.66
X46.79Y66.12
X46.79Y63.58
X46.79Y61.04
X46.79Y58.5
X46.79Y55.96
X46.79Y53.42
X46.79Y50.88
X46.79Y48.34
X29.89Y70.13
X29.89Y67.59
X29.89Y65.05
X29.89Y62.51
X29.89Y59.97
X29.89Y57.43
X29.89Y54.89
X29.89Y52.35
X29.89Y49.81
X29.89Y47.27
X29.89Y44.73
X29.89Y42.19
X29.89Y39.65
X29.89Y37.11
X29.89Y34.57
X29.89Y32.03
X29.89Y29.49
X29.89Y26.95
X29.89Y24.41
X29.89Y21.87
X23.54Y22.1
X21.0Y22.1
X18.46Y22.1
X12.11Y70.13
X12.11Y67.59
X12.11Y65.05
X12.11Y62.51
X12.11Y59.97
X12.11Y57.43
X12.11Y54.89
X12.11Y52.35
X12.11Y49.81
X12.11Y47.27
X12.11Y44.73
X12.11Y42.19
X12.11Y39.65
X12.11Y37.11
X12.11Y34.57
X12.11Y32.03
X12.11Y29.49
X12.11Y26.95
X12.11Y24.41
X12.11Y21.87
X3.975Y29.55
X3.975Y27.01
X3.975Y24.47
X3.975Y21.93
T2
X23.425Y66.97
X18.575Y66.97
T3
X23.725Y70.0
X18.275Y70.0
M30
