M48
; DRILL file {KiCad 8.0.6} date 2024-11-21T13:33:25+0100
; FORMAT={-:-/ absolute / metric / decimal}
; #@! TF.CreationDate,2024-11-21T13:33:25+01:00
; #@! TF.GenerationSoftware,Kicad,Pcbnew,8.0.6
; #@! TF.FileFunction,Plated,1,2,PTH
FMAT,2
METRIC
; #@! TA.AperFunction,Plated,PTH,ComponentDrill
T1C1.100
%
G90
G05
T1
X118.75Y-66.6
X118.75Y-69.14
X118.75Y-71.68
X118.75Y-74.22
X118.75Y-76.76
X118.75Y-79.3
X118.75Y-81.84
X118.75Y-84.38
X118.75Y-86.92
X118.75Y-89.46
X118.75Y-92.0
X119.35Y-118.44
X119.35Y-120.98
X119.35Y-123.52
X119.35Y-126.06
X126.25Y-70.5
X126.25Y-110.0
X127.0Y-62.0
X127.0Y-64.54
X129.1Y-118.44
X129.1Y-120.98
X129.1Y-123.52
X129.1Y-126.06
X131.0Y-62.0
X131.0Y-64.54
X135.0Y-62.0
X135.0Y-64.54
X139.0Y-62.0
X139.0Y-64.54
X143.75Y-70.5
X143.75Y-110.0
X149.0Y-97.75
X149.0Y-100.29
X156.71Y-65.55
X156.71Y-68.09
X156.71Y-70.63
X156.71Y-73.17
X156.71Y-75.71
X156.71Y-78.25
X156.71Y-80.79
X156.71Y-83.33
X156.71Y-85.87
X156.71Y-88.41
X162.46Y-97.75
X165.0Y-97.75
X167.54Y-97.75
X170.08Y-97.75
X177.17Y-65.55
X177.17Y-68.09
X177.17Y-70.63
X177.17Y-73.17
X177.17Y-75.71
X177.17Y-78.25
X177.17Y-80.79
X177.17Y-83.33
X177.17Y-85.87
X177.17Y-88.41
X179.71Y-65.55
X179.71Y-68.09
X179.71Y-70.63
X179.71Y-73.17
X179.71Y-75.71
X179.71Y-78.25
X179.71Y-80.79
X179.71Y-83.33
X179.71Y-85.87
X179.71Y-88.41
X196.61Y-66.62
X196.61Y-69.16
X196.61Y-71.7
X196.61Y-74.24
X196.61Y-76.78
X196.61Y-79.32
X196.61Y-81.86
X196.61Y-84.4
X196.61Y-86.94
X196.61Y-89.48
X196.61Y-92.02
X196.61Y-94.56
X196.61Y-97.1
X196.61Y-99.64
X196.61Y-102.18
X196.61Y-104.72
X196.61Y-107.26
X196.61Y-109.8
X196.61Y-112.34
X196.61Y-114.88
X202.96Y-114.65
X205.5Y-114.65
X208.04Y-114.65
X214.39Y-66.62
X214.39Y-69.16
X214.39Y-71.7
X214.39Y-74.24
X214.39Y-76.78
X214.39Y-79.32
X214.39Y-81.86
X214.39Y-84.4
X214.39Y-86.94
X214.39Y-89.48
X214.39Y-92.02
X214.39Y-94.56
X214.39Y-97.1
X214.39Y-99.64
X214.39Y-102.18
X214.39Y-104.72
X214.39Y-107.26
X214.39Y-109.8
X214.39Y-112.34
X214.39Y-114.88
X222.525Y-107.2
X222.525Y-109.74
X222.525Y-112.28
X222.525Y-114.82
M30
