%TF.GenerationSoftware,KiCad,Pcbnew,8.0.6*%
%TF.CreationDate,2024-11-21T13:35:36+01:00*%
%TF.ProjectId,Pollen PCB,506f6c6c-656e-4205-9043-422e6b696361,rev?*%
%TF.SameCoordinates,Original*%
%TF.FileFunction,Copper,L2,Bot*%
%TF.FilePolarity,Positive*%
%FSLAX46Y46*%
G04 Gerber Fmt 4.6, Leading zero omitted, Abs format (unit mm)*
G04 Created by KiCad (PCBNEW 8.0.6) date 2024-11-21 13:35:36*
%MOMM*%
%LPD*%
G01*
G04 APERTURE LIST*
%TA.AperFunction,ComponentPad*%
%ADD10C,2.200000*%
%TD*%
%TA.AperFunction,Conductor*%
%ADD11C,0.500000*%
%TD*%
%TA.AperFunction,Conductor*%
%ADD12C,1.270000*%
%TD*%
G04 APERTURE END LIST*
D10*
%TO.P,U7,1,VDD*%
%TO.N,+3V3_SENSOR*%
X129100000Y-126060000D03*
%TO.P,U7,2,SDA*%
%TO.N,/DHT_2*%
X129100000Y-123520000D03*
%TO.P,U7,3,GND*%
%TO.N,GND*%
X129100000Y-120980000D03*
%TO.P,U7,4,GND*%
X129100000Y-118440000D03*
%TD*%
%TO.P,U4,1,VDD*%
%TO.N,+3V3_SENSOR*%
X119350000Y-126060000D03*
%TO.P,U4,2,SDA*%
%TO.N,/DHT_1*%
X119350000Y-123520000D03*
%TO.P,U4,3,GND*%
%TO.N,GND*%
X119350000Y-120980000D03*
%TO.P,U4,4,GND*%
X119350000Y-118440000D03*
%TD*%
%TO.P,J8,1,GND*%
%TO.N,GND*%
X149000000Y-100290000D03*
%TO.P,J8,2,V+*%
%TO.N,+5V*%
X149000000Y-97750000D03*
%TD*%
%TO.P,J1,1,VCC*%
%TO.N,+5V*%
X170080000Y-97750000D03*
%TO.P,J1,2,RX*%
%TO.N,unconnected-(J1-RX-Pad2)*%
X167540000Y-97750000D03*
%TO.P,J1,3,TX*%
%TO.N,Net-(J1-TX)*%
X165000000Y-97750000D03*
%TO.P,J1,4,GND*%
%TO.N,GND*%
X162460000Y-97750000D03*
%TD*%
%TO.P,J6,1,Pin_1*%
%TO.N,/RPI_MOSI*%
X222525000Y-107200000D03*
%TO.P,J6,2,Pin_2*%
%TO.N,/RPI_SCK*%
X222525000Y-109740000D03*
%TO.P,J6,3,Pin_3*%
%TO.N,/RPI_CS*%
X222525000Y-112280000D03*
%TO.P,J6,4,Pin_4*%
%TO.N,/RPI_MISO*%
X222525000Y-114820000D03*
%TD*%
%TO.P,U2,1,GPIO0*%
%TO.N,/NB-IOT_RX*%
X196610000Y-66620000D03*
%TO.P,U2,2,GPIO1*%
%TO.N,/NB-IOT_TX*%
X196610000Y-69160000D03*
%TO.P,U2,3,GND*%
%TO.N,GND*%
X196610000Y-71700000D03*
%TO.P,U2,4,GPIO2*%
%TO.N,/NB-IOT_RST*%
X196610000Y-74240000D03*
%TO.P,U2,5,GPIO3*%
%TO.N,/5V_CONTROL*%
X196610000Y-76780000D03*
%TO.P,U2,6,GPIO4*%
%TO.N,/SDA*%
X196610000Y-79320000D03*
%TO.P,U2,7,GPIO5*%
%TO.N,/SCL*%
X196610000Y-81860000D03*
%TO.P,U2,8,GND*%
%TO.N,GND*%
X196610000Y-84400000D03*
%TO.P,U2,9,GPIO6*%
%TO.N,unconnected-(U2-GPIO6-Pad9)*%
X196610000Y-86940000D03*
%TO.P,U2,10,GPIO7*%
%TO.N,unconnected-(U2-GPIO7-Pad10)*%
X196610000Y-89480000D03*
%TO.P,U2,11,GPIO8*%
%TO.N,unconnected-(U2-GPIO8-Pad11)*%
X196610000Y-92020000D03*
%TO.P,U2,12,GPIO9*%
%TO.N,/GPS_TX*%
X196610000Y-94560000D03*
%TO.P,U2,13,GND*%
%TO.N,GND*%
X196610000Y-97100000D03*
%TO.P,U2,14,GPIO10*%
%TO.N,unconnected-(U2-GPIO10-Pad14)*%
X196610000Y-99640000D03*
%TO.P,U2,15,GPIO11*%
%TO.N,unconnected-(U2-GPIO11-Pad15)*%
X196610000Y-102180000D03*
%TO.P,U2,16,GPIO12*%
%TO.N,unconnected-(U2-GPIO12-Pad16)*%
X196610000Y-104720000D03*
%TO.P,U2,17,GPIO13*%
%TO.N,/DHT_1*%
X196610000Y-107260000D03*
%TO.P,U2,18,GND*%
%TO.N,GND*%
X196610000Y-109800000D03*
%TO.P,U2,19,GPIO14*%
%TO.N,unconnected-(U2-GPIO14-Pad19)*%
X196610000Y-112340000D03*
%TO.P,U2,20,GPIO15*%
%TO.N,/DHT_2*%
X196610000Y-114880000D03*
%TO.P,U2,21,GPIO16*%
%TO.N,/RPI_MISO*%
X214390000Y-114880000D03*
%TO.P,U2,22,GPIO17*%
%TO.N,/RPI_CS*%
X214390000Y-112340000D03*
%TO.P,U2,23,GND*%
%TO.N,GND*%
X214390000Y-109800000D03*
%TO.P,U2,24,GPIO18*%
%TO.N,/RPI_SCK*%
X214390000Y-107260000D03*
%TO.P,U2,25,GPIO19*%
%TO.N,/RPI_MOSI*%
X214390000Y-104720000D03*
%TO.P,U2,26,GPIO20*%
%TO.N,/3V3_SENSOR_CONTROL*%
X214390000Y-102180000D03*
%TO.P,U2,27,GPIO21*%
%TO.N,/CHARGER_PGOOD*%
X214390000Y-99640000D03*
%TO.P,U2,28,GND*%
%TO.N,GND*%
X214390000Y-97100000D03*
%TO.P,U2,29,GPIO22*%
%TO.N,/CHARGER_CHG*%
X214390000Y-94560000D03*
%TO.P,U2,30,RUN*%
%TO.N,unconnected-(U2-RUN-Pad30)*%
X214390000Y-92020000D03*
%TO.P,U2,31,GPIO26_ADC0*%
%TO.N,unconnected-(U2-GPIO26_ADC0-Pad31)*%
X214390000Y-89480000D03*
%TO.P,U2,32,GPIO27_ADC1*%
%TO.N,unconnected-(U2-GPIO27_ADC1-Pad32)*%
X214390000Y-86940000D03*
%TO.P,U2,33,AGND*%
%TO.N,unconnected-(U2-AGND-Pad33)*%
X214390000Y-84400000D03*
%TO.P,U2,34,GPIO28_ADC2*%
%TO.N,unconnected-(U2-GPIO28_ADC2-Pad34)*%
X214390000Y-81860000D03*
%TO.P,U2,35,ADC_VREF*%
%TO.N,unconnected-(U2-ADC_VREF-Pad35)*%
X214390000Y-79320000D03*
%TO.P,U2,36,3V3*%
%TO.N,+3V3*%
X214390000Y-76780000D03*
%TO.P,U2,37,3V3_EN*%
%TO.N,unconnected-(U2-3V3_EN-Pad37)*%
X214390000Y-74240000D03*
%TO.P,U2,38,GND*%
%TO.N,GND*%
X214390000Y-71700000D03*
%TO.P,U2,39,VSYS*%
%TO.N,+BATT*%
X214390000Y-69160000D03*
%TO.P,U2,40,VBUS*%
%TO.N,unconnected-(U2-VBUS-Pad40)*%
X214390000Y-66620000D03*
%TO.P,U2,41,SWCLK*%
%TO.N,unconnected-(U2-SWCLK-Pad41)*%
X202960000Y-114650000D03*
%TO.P,U2,42,GND*%
%TO.N,unconnected-(U2-GND-Pad42)*%
X205500000Y-114650000D03*
%TO.P,U2,43,SWDIO*%
%TO.N,unconnected-(U2-SWDIO-Pad43)*%
X208040000Y-114650000D03*
%TD*%
%TO.P,U1,1,Pin_1*%
%TO.N,unconnected-(U1-Pin_1-Pad1)*%
X156710000Y-65550000D03*
%TO.P,U1,2,Pin_2*%
%TO.N,unconnected-(U1-Pin_2-Pad2)*%
X156710000Y-68090000D03*
%TO.P,U1,3,VCC*%
%TO.N,+3V3*%
X156710000Y-70630000D03*
%TO.P,U1,4,GND*%
%TO.N,GND*%
X156710000Y-73170000D03*
%TO.P,U1,5,Pin_5*%
%TO.N,unconnected-(U1-Pin_5-Pad5)*%
X156710000Y-75710000D03*
%TO.P,U1,6,Pin_6*%
%TO.N,unconnected-(U1-Pin_6-Pad6)*%
X156710000Y-78250000D03*
%TO.P,U1,7,Pin_7*%
%TO.N,unconnected-(U1-Pin_7-Pad7)*%
X156710000Y-80790000D03*
%TO.P,U1,8,Pin_8*%
%TO.N,unconnected-(U1-Pin_8-Pad8)*%
X156710000Y-83330000D03*
%TO.P,U1,9,RST*%
%TO.N,/NB-IOT_RST*%
X156710000Y-85870000D03*
%TO.P,U1,10,Pin_10*%
%TO.N,unconnected-(U1-Pin_10-Pad10)*%
X156710000Y-88410000D03*
%TO.P,U1,11,Pin_11*%
%TO.N,unconnected-(U1-Pin_11-Pad11)*%
X177170000Y-65550000D03*
%TO.P,U1,12,Pin_12*%
%TO.N,unconnected-(U1-Pin_12-Pad12)*%
X177170000Y-68090000D03*
%TO.P,U1,13,Pin_13*%
%TO.N,unconnected-(U1-Pin_13-Pad13)*%
X177170000Y-70630000D03*
%TO.P,U1,14,Pin_14*%
%TO.N,unconnected-(U1-Pin_14-Pad14)*%
X177170000Y-73170000D03*
%TO.P,U1,15,Pin_15*%
%TO.N,unconnected-(U1-Pin_15-Pad15)*%
X177170000Y-75710000D03*
%TO.P,U1,16,Pin_16*%
%TO.N,unconnected-(U1-Pin_16-Pad16)*%
X177170000Y-78250000D03*
%TO.P,U1,17,Pin_17*%
%TO.N,unconnected-(U1-Pin_17-Pad17)*%
X177170000Y-80790000D03*
%TO.P,U1,18,Pin_18*%
%TO.N,unconnected-(U1-Pin_18-Pad18)*%
X177170000Y-83330000D03*
%TO.P,U1,19,RxD*%
%TO.N,/NB-IOT_RX*%
X177170000Y-85870000D03*
%TO.P,U1,20,TxD*%
%TO.N,/NB-IOT_TX*%
X177170000Y-88410000D03*
%TO.P,U1,21,Pin_21*%
%TO.N,unconnected-(U1-Pin_21-Pad21)*%
X179710000Y-65550000D03*
%TO.P,U1,22,Pin_22*%
%TO.N,unconnected-(U1-Pin_22-Pad22)*%
X179710000Y-68090000D03*
%TO.P,U1,23,Pin_23*%
%TO.N,unconnected-(U1-Pin_23-Pad23)*%
X179710000Y-70630000D03*
%TO.P,U1,24,Pin_24*%
%TO.N,unconnected-(U1-Pin_24-Pad24)*%
X179710000Y-73170000D03*
%TO.P,U1,25,Pin_25*%
%TO.N,unconnected-(U1-Pin_25-Pad25)*%
X179710000Y-75710000D03*
%TO.P,U1,26,Pin_26*%
%TO.N,unconnected-(U1-Pin_26-Pad26)*%
X179710000Y-78250000D03*
%TO.P,U1,27,Pin_27*%
%TO.N,unconnected-(U1-Pin_27-Pad27)*%
X179710000Y-80790000D03*
%TO.P,U1,28,Pin_28*%
%TO.N,unconnected-(U1-Pin_28-Pad28)*%
X179710000Y-83330000D03*
%TO.P,U1,29,Pin_29*%
%TO.N,unconnected-(U1-Pin_29-Pad29)*%
X179710000Y-85870000D03*
%TO.P,U1,30,Pin_30*%
%TO.N,unconnected-(U1-Pin_30-Pad30)*%
X179710000Y-88410000D03*
%TD*%
%TO.P,J3,1,V+*%
%TO.N,GND*%
X139000000Y-62000000D03*
%TO.P,J3,2,GND*%
%TO.N,/SOLAR_V+*%
X139000000Y-64540000D03*
%TD*%
%TO.P,J4,1,V+*%
%TO.N,GND*%
X135000000Y-62000000D03*
%TO.P,J4,2,GND*%
%TO.N,/SOLAR_V+*%
X135000000Y-64540000D03*
%TD*%
%TO.P,J5,1,V+*%
%TO.N,GND*%
X131000000Y-62000000D03*
%TO.P,J5,2,GND*%
%TO.N,/CHARGER_V+*%
X131000000Y-64540000D03*
%TD*%
%TO.P,J7,1,V+*%
%TO.N,GND*%
X127000000Y-62000000D03*
%TO.P,J7,2,GND*%
%TO.N,/BATTERY+*%
X127000000Y-64540000D03*
%TD*%
%TO.P,U3,1,VIN*%
%TO.N,Net-(Q1-S)*%
X143750000Y-70500000D03*
%TO.P,U3,2,GND*%
%TO.N,GND*%
X126250000Y-70500000D03*
%TO.P,U3,3,VOUT*%
%TO.N,+5V*%
X143750000Y-110000000D03*
%TO.P,U3,4,GND*%
%TO.N,GND*%
X126250000Y-110000000D03*
%TD*%
%TO.P,J2,1,VBUS*%
%TO.N,unconnected-(J2-VBUS-Pad1)*%
X118750000Y-92000000D03*
%TO.P,J2,2,GND*%
%TO.N,GND*%
X118750000Y-89460000D03*
%TO.P,J2,3,THERM*%
%TO.N,unconnected-(J2-THERM-Pad3)*%
X118750000Y-86920000D03*
%TO.P,J2,4,ISET*%
%TO.N,unconnected-(J2-ISET-Pad4)*%
X118750000Y-84380000D03*
%TO.P,J2,5,CE*%
%TO.N,unconnected-(J2-CE-Pad5)*%
X118750000Y-81840000D03*
%TO.P,J2,6,PGOOD*%
%TO.N,/CHARGER_PGOOD*%
X118750000Y-79300000D03*
%TO.P,J2,7,CHG*%
%TO.N,/CHARGER_CHG*%
X118750000Y-76760000D03*
%TO.P,J2,8,OUT*%
%TO.N,+BATT*%
X118750000Y-74220000D03*
%TO.P,J2,9,GND*%
%TO.N,GND*%
X118750000Y-71680000D03*
%TO.P,J2,10,LIPO*%
%TO.N,/CHARGER_LIPO*%
X118750000Y-69140000D03*
%TO.P,J2,11,GND*%
%TO.N,GND*%
X118750000Y-66600000D03*
%TD*%
%TO.P,R9,1*%
%TO.N,Net-(J1-TX)*%
%TA.AperFunction,SMDPad,CuDef*%
G36*
G01*
X164405000Y-100075000D02*
X165655000Y-100075000D01*
G75*
G02*
X165905000Y-100325000I0J-250000D01*
G01*
X165905000Y-101125000D01*
G75*
G02*
X165655000Y-101375000I-250000J0D01*
G01*
X164405000Y-101375000D01*
G75*
G02*
X164155000Y-101125000I0J250000D01*
G01*
X164155000Y-100325000D01*
G75*
G02*
X164405000Y-100075000I250000J0D01*
G01*
G37*
%TD.AperFunction*%
%TO.P,R9,2*%
%TO.N,/GPS_TX*%
%TA.AperFunction,SMDPad,CuDef*%
G36*
G01*
X164405000Y-103175000D02*
X165655000Y-103175000D01*
G75*
G02*
X165905000Y-103425000I0J-250000D01*
G01*
X165905000Y-104225000D01*
G75*
G02*
X165655000Y-104475000I-250000J0D01*
G01*
X164405000Y-104475000D01*
G75*
G02*
X164155000Y-104225000I0J250000D01*
G01*
X164155000Y-103425000D01*
G75*
G02*
X164405000Y-103175000I250000J0D01*
G01*
G37*
%TD.AperFunction*%
%TD*%
%TO.P,Q4,1,G*%
%TO.N,Net-(Q3-C)*%
%TA.AperFunction,SMDPad,CuDef*%
G36*
G01*
X205600000Y-106300000D02*
X205900000Y-106300000D01*
G75*
G02*
X206050000Y-106450000I0J-150000D01*
G01*
X206050000Y-107625000D01*
G75*
G02*
X205900000Y-107775000I-150000J0D01*
G01*
X205600000Y-107775000D01*
G75*
G02*
X205450000Y-107625000I0J150000D01*
G01*
X205450000Y-106450000D01*
G75*
G02*
X205600000Y-106300000I150000J0D01*
G01*
G37*
%TD.AperFunction*%
%TO.P,Q4,2,S*%
%TO.N,+3V3_SENSOR*%
%TA.AperFunction,SMDPad,CuDef*%
G36*
G01*
X207500000Y-106300000D02*
X207800000Y-106300000D01*
G75*
G02*
X207950000Y-106450000I0J-150000D01*
G01*
X207950000Y-107625000D01*
G75*
G02*
X207800000Y-107775000I-150000J0D01*
G01*
X207500000Y-107775000D01*
G75*
G02*
X207350000Y-107625000I0J150000D01*
G01*
X207350000Y-106450000D01*
G75*
G02*
X207500000Y-106300000I150000J0D01*
G01*
G37*
%TD.AperFunction*%
%TO.P,Q4,3,D*%
%TO.N,+3V3*%
%TA.AperFunction,SMDPad,CuDef*%
G36*
G01*
X206550000Y-108175000D02*
X206850000Y-108175000D01*
G75*
G02*
X207000000Y-108325000I0J-150000D01*
G01*
X207000000Y-109500000D01*
G75*
G02*
X206850000Y-109650000I-150000J0D01*
G01*
X206550000Y-109650000D01*
G75*
G02*
X206400000Y-109500000I0J150000D01*
G01*
X206400000Y-108325000D01*
G75*
G02*
X206550000Y-108175000I150000J0D01*
G01*
G37*
%TD.AperFunction*%
%TD*%
%TO.P,Q1,1,G*%
%TO.N,Net-(Q1-G)*%
%TA.AperFunction,SMDPad,CuDef*%
G36*
G01*
X148100000Y-66925000D02*
X147800000Y-66925000D01*
G75*
G02*
X147650000Y-66775000I0J150000D01*
G01*
X147650000Y-65600000D01*
G75*
G02*
X147800000Y-65450000I150000J0D01*
G01*
X148100000Y-65450000D01*
G75*
G02*
X148250000Y-65600000I0J-150000D01*
G01*
X148250000Y-66775000D01*
G75*
G02*
X148100000Y-66925000I-150000J0D01*
G01*
G37*
%TD.AperFunction*%
%TO.P,Q1,2,S*%
%TO.N,Net-(Q1-S)*%
%TA.AperFunction,SMDPad,CuDef*%
G36*
G01*
X146200000Y-66925000D02*
X145900000Y-66925000D01*
G75*
G02*
X145750000Y-66775000I0J150000D01*
G01*
X145750000Y-65600000D01*
G75*
G02*
X145900000Y-65450000I150000J0D01*
G01*
X146200000Y-65450000D01*
G75*
G02*
X146350000Y-65600000I0J-150000D01*
G01*
X146350000Y-66775000D01*
G75*
G02*
X146200000Y-66925000I-150000J0D01*
G01*
G37*
%TD.AperFunction*%
%TO.P,Q1,3,D*%
%TO.N,+BATT*%
%TA.AperFunction,SMDPad,CuDef*%
G36*
G01*
X147150000Y-65050000D02*
X146850000Y-65050000D01*
G75*
G02*
X146700000Y-64900000I0J150000D01*
G01*
X146700000Y-63725000D01*
G75*
G02*
X146850000Y-63575000I150000J0D01*
G01*
X147150000Y-63575000D01*
G75*
G02*
X147300000Y-63725000I0J-150000D01*
G01*
X147300000Y-64900000D01*
G75*
G02*
X147150000Y-65050000I-150000J0D01*
G01*
G37*
%TD.AperFunction*%
%TD*%
%TO.P,R1,1*%
%TO.N,/SOLAR_V+*%
%TA.AperFunction,SMDPad,CuDef*%
G36*
G01*
X139750000Y-68324999D02*
X139750000Y-71175001D01*
G75*
G02*
X139500001Y-71425000I-249999J0D01*
G01*
X138599999Y-71425000D01*
G75*
G02*
X138350000Y-71175001I0J249999D01*
G01*
X138350000Y-68324999D01*
G75*
G02*
X138599999Y-68075000I249999J0D01*
G01*
X139500001Y-68075000D01*
G75*
G02*
X139750000Y-68324999I0J-249999D01*
G01*
G37*
%TD.AperFunction*%
%TO.P,R1,2*%
%TO.N,/CHARGER_V+*%
%TA.AperFunction,SMDPad,CuDef*%
G36*
G01*
X133650000Y-68324999D02*
X133650000Y-71175001D01*
G75*
G02*
X133400001Y-71425000I-249999J0D01*
G01*
X132499999Y-71425000D01*
G75*
G02*
X132250000Y-71175001I0J249999D01*
G01*
X132250000Y-68324999D01*
G75*
G02*
X132499999Y-68075000I249999J0D01*
G01*
X133400001Y-68075000D01*
G75*
G02*
X133650000Y-68324999I0J-249999D01*
G01*
G37*
%TD.AperFunction*%
%TD*%
%TO.P,C1,1*%
%TO.N,+3V3*%
%TA.AperFunction,SMDPad,CuDef*%
G36*
G01*
X138725000Y-89100000D02*
X138725000Y-90400000D01*
G75*
G02*
X138475000Y-90650000I-250000J0D01*
G01*
X137650000Y-90650000D01*
G75*
G02*
X137400000Y-90400000I0J250000D01*
G01*
X137400000Y-89100000D01*
G75*
G02*
X137650000Y-88850000I250000J0D01*
G01*
X138475000Y-88850000D01*
G75*
G02*
X138725000Y-89100000I0J-250000D01*
G01*
G37*
%TD.AperFunction*%
%TO.P,C1,2*%
%TO.N,GND*%
%TA.AperFunction,SMDPad,CuDef*%
G36*
G01*
X135600000Y-89100000D02*
X135600000Y-90400000D01*
G75*
G02*
X135350000Y-90650000I-250000J0D01*
G01*
X134525000Y-90650000D01*
G75*
G02*
X134275000Y-90400000I0J250000D01*
G01*
X134275000Y-89100000D01*
G75*
G02*
X134525000Y-88850000I250000J0D01*
G01*
X135350000Y-88850000D01*
G75*
G02*
X135600000Y-89100000I0J-250000D01*
G01*
G37*
%TD.AperFunction*%
%TD*%
%TO.P,R7,1*%
%TO.N,/3V3_SENSOR_CONTROL*%
%TA.AperFunction,SMDPad,CuDef*%
G36*
G01*
X212950000Y-101625000D02*
X212950000Y-102875000D01*
G75*
G02*
X212700000Y-103125000I-250000J0D01*
G01*
X211900000Y-103125000D01*
G75*
G02*
X211650000Y-102875000I0J250000D01*
G01*
X211650000Y-101625000D01*
G75*
G02*
X211900000Y-101375000I250000J0D01*
G01*
X212700000Y-101375000D01*
G75*
G02*
X212950000Y-101625000I0J-250000D01*
G01*
G37*
%TD.AperFunction*%
%TO.P,R7,2*%
%TO.N,Net-(Q3-B)*%
%TA.AperFunction,SMDPad,CuDef*%
G36*
G01*
X209850000Y-101625000D02*
X209850000Y-102875000D01*
G75*
G02*
X209600000Y-103125000I-250000J0D01*
G01*
X208800000Y-103125000D01*
G75*
G02*
X208550000Y-102875000I0J250000D01*
G01*
X208550000Y-101625000D01*
G75*
G02*
X208800000Y-101375000I250000J0D01*
G01*
X209600000Y-101375000D01*
G75*
G02*
X209850000Y-101625000I0J-250000D01*
G01*
G37*
%TD.AperFunction*%
%TD*%
%TO.P,Q2,1,B*%
%TO.N,Net-(Q2-B)*%
%TA.AperFunction,SMDPad,CuDef*%
G36*
G01*
X150100000Y-71175000D02*
X149800000Y-71175000D01*
G75*
G02*
X149650000Y-71025000I0J150000D01*
G01*
X149650000Y-69850000D01*
G75*
G02*
X149800000Y-69700000I150000J0D01*
G01*
X150100000Y-69700000D01*
G75*
G02*
X150250000Y-69850000I0J-150000D01*
G01*
X150250000Y-71025000D01*
G75*
G02*
X150100000Y-71175000I-150000J0D01*
G01*
G37*
%TD.AperFunction*%
%TO.P,Q2,2,E*%
%TO.N,GND*%
%TA.AperFunction,SMDPad,CuDef*%
G36*
G01*
X148200000Y-71175000D02*
X147900000Y-71175000D01*
G75*
G02*
X147750000Y-71025000I0J150000D01*
G01*
X147750000Y-69850000D01*
G75*
G02*
X147900000Y-69700000I150000J0D01*
G01*
X148200000Y-69700000D01*
G75*
G02*
X148350000Y-69850000I0J-150000D01*
G01*
X148350000Y-71025000D01*
G75*
G02*
X148200000Y-71175000I-150000J0D01*
G01*
G37*
%TD.AperFunction*%
%TO.P,Q2,3,C*%
%TO.N,Net-(Q1-G)*%
%TA.AperFunction,SMDPad,CuDef*%
G36*
G01*
X149150000Y-69300000D02*
X148850000Y-69300000D01*
G75*
G02*
X148700000Y-69150000I0J150000D01*
G01*
X148700000Y-67975000D01*
G75*
G02*
X148850000Y-67825000I150000J0D01*
G01*
X149150000Y-67825000D01*
G75*
G02*
X149300000Y-67975000I0J-150000D01*
G01*
X149300000Y-69150000D01*
G75*
G02*
X149150000Y-69300000I-150000J0D01*
G01*
G37*
%TD.AperFunction*%
%TD*%
%TO.P,R3,1*%
%TO.N,+3V3*%
%TA.AperFunction,SMDPad,CuDef*%
G36*
G01*
X140125000Y-86750000D02*
X138875000Y-86750000D01*
G75*
G02*
X138625000Y-86500000I0J250000D01*
G01*
X138625000Y-85700000D01*
G75*
G02*
X138875000Y-85450000I250000J0D01*
G01*
X140125000Y-85450000D01*
G75*
G02*
X140375000Y-85700000I0J-250000D01*
G01*
X140375000Y-86500000D01*
G75*
G02*
X140125000Y-86750000I-250000J0D01*
G01*
G37*
%TD.AperFunction*%
%TO.P,R3,2*%
%TO.N,/SDA*%
%TA.AperFunction,SMDPad,CuDef*%
G36*
G01*
X140125000Y-83650000D02*
X138875000Y-83650000D01*
G75*
G02*
X138625000Y-83400000I0J250000D01*
G01*
X138625000Y-82600000D01*
G75*
G02*
X138875000Y-82350000I250000J0D01*
G01*
X140125000Y-82350000D01*
G75*
G02*
X140375000Y-82600000I0J-250000D01*
G01*
X140375000Y-83400000D01*
G75*
G02*
X140125000Y-83650000I-250000J0D01*
G01*
G37*
%TD.AperFunction*%
%TD*%
%TO.P,R10,1*%
%TO.N,/GPS_TX*%
%TA.AperFunction,SMDPad,CuDef*%
G36*
G01*
X163155000Y-104475000D02*
X161905000Y-104475000D01*
G75*
G02*
X161655000Y-104225000I0J250000D01*
G01*
X161655000Y-103425000D01*
G75*
G02*
X161905000Y-103175000I250000J0D01*
G01*
X163155000Y-103175000D01*
G75*
G02*
X163405000Y-103425000I0J-250000D01*
G01*
X163405000Y-104225000D01*
G75*
G02*
X163155000Y-104475000I-250000J0D01*
G01*
G37*
%TD.AperFunction*%
%TO.P,R10,2*%
%TO.N,GND*%
%TA.AperFunction,SMDPad,CuDef*%
G36*
G01*
X163155000Y-101375000D02*
X161905000Y-101375000D01*
G75*
G02*
X161655000Y-101125000I0J250000D01*
G01*
X161655000Y-100325000D01*
G75*
G02*
X161905000Y-100075000I250000J0D01*
G01*
X163155000Y-100075000D01*
G75*
G02*
X163405000Y-100325000I0J-250000D01*
G01*
X163405000Y-101125000D01*
G75*
G02*
X163155000Y-101375000I-250000J0D01*
G01*
G37*
%TD.AperFunction*%
%TD*%
%TO.P,R8,1*%
%TO.N,+3V3*%
%TA.AperFunction,SMDPad,CuDef*%
G36*
G01*
X204325000Y-110675000D02*
X203075000Y-110675000D01*
G75*
G02*
X202825000Y-110425000I0J250000D01*
G01*
X202825000Y-109625000D01*
G75*
G02*
X203075000Y-109375000I250000J0D01*
G01*
X204325000Y-109375000D01*
G75*
G02*
X204575000Y-109625000I0J-250000D01*
G01*
X204575000Y-110425000D01*
G75*
G02*
X204325000Y-110675000I-250000J0D01*
G01*
G37*
%TD.AperFunction*%
%TO.P,R8,2*%
%TO.N,Net-(Q3-C)*%
%TA.AperFunction,SMDPad,CuDef*%
G36*
G01*
X204325000Y-107575000D02*
X203075000Y-107575000D01*
G75*
G02*
X202825000Y-107325000I0J250000D01*
G01*
X202825000Y-106525000D01*
G75*
G02*
X203075000Y-106275000I250000J0D01*
G01*
X204325000Y-106275000D01*
G75*
G02*
X204575000Y-106525000I0J-250000D01*
G01*
X204575000Y-107325000D01*
G75*
G02*
X204325000Y-107575000I-250000J0D01*
G01*
G37*
%TD.AperFunction*%
%TD*%
%TO.P,R2,1*%
%TO.N,/CHARGER_LIPO*%
%TA.AperFunction,SMDPad,CuDef*%
G36*
G01*
X122000000Y-76675001D02*
X122000000Y-73824999D01*
G75*
G02*
X122249999Y-73575000I249999J0D01*
G01*
X123150001Y-73575000D01*
G75*
G02*
X123400000Y-73824999I0J-249999D01*
G01*
X123400000Y-76675001D01*
G75*
G02*
X123150001Y-76925000I-249999J0D01*
G01*
X122249999Y-76925000D01*
G75*
G02*
X122000000Y-76675001I0J249999D01*
G01*
G37*
%TD.AperFunction*%
%TO.P,R2,2*%
%TO.N,/BATTERY+*%
%TA.AperFunction,SMDPad,CuDef*%
G36*
G01*
X128100000Y-76675001D02*
X128100000Y-73824999D01*
G75*
G02*
X128349999Y-73575000I249999J0D01*
G01*
X129250001Y-73575000D01*
G75*
G02*
X129500000Y-73824999I0J-249999D01*
G01*
X129500000Y-76675001D01*
G75*
G02*
X129250001Y-76925000I-249999J0D01*
G01*
X128349999Y-76925000D01*
G75*
G02*
X128100000Y-76675001I0J249999D01*
G01*
G37*
%TD.AperFunction*%
%TD*%
%TO.P,R6,1*%
%TO.N,/5V_CONTROL*%
%TA.AperFunction,SMDPad,CuDef*%
G36*
G01*
X146550000Y-73625000D02*
X146550000Y-72375000D01*
G75*
G02*
X146800000Y-72125000I250000J0D01*
G01*
X147600000Y-72125000D01*
G75*
G02*
X147850000Y-72375000I0J-250000D01*
G01*
X147850000Y-73625000D01*
G75*
G02*
X147600000Y-73875000I-250000J0D01*
G01*
X146800000Y-73875000D01*
G75*
G02*
X146550000Y-73625000I0J250000D01*
G01*
G37*
%TD.AperFunction*%
%TO.P,R6,2*%
%TO.N,Net-(Q2-B)*%
%TA.AperFunction,SMDPad,CuDef*%
G36*
G01*
X149650000Y-73625000D02*
X149650000Y-72375000D01*
G75*
G02*
X149900000Y-72125000I250000J0D01*
G01*
X150700000Y-72125000D01*
G75*
G02*
X150950000Y-72375000I0J-250000D01*
G01*
X150950000Y-73625000D01*
G75*
G02*
X150700000Y-73875000I-250000J0D01*
G01*
X149900000Y-73875000D01*
G75*
G02*
X149650000Y-73625000I0J250000D01*
G01*
G37*
%TD.AperFunction*%
%TD*%
%TO.P,Q3,1,B*%
%TO.N,Net-(Q3-B)*%
%TA.AperFunction,SMDPad,CuDef*%
G36*
G01*
X204600000Y-102300000D02*
X204900000Y-102300000D01*
G75*
G02*
X205050000Y-102450000I0J-150000D01*
G01*
X205050000Y-103625000D01*
G75*
G02*
X204900000Y-103775000I-150000J0D01*
G01*
X204600000Y-103775000D01*
G75*
G02*
X204450000Y-103625000I0J150000D01*
G01*
X204450000Y-102450000D01*
G75*
G02*
X204600000Y-102300000I150000J0D01*
G01*
G37*
%TD.AperFunction*%
%TO.P,Q3,2,E*%
%TO.N,GND*%
%TA.AperFunction,SMDPad,CuDef*%
G36*
G01*
X206500000Y-102300000D02*
X206800000Y-102300000D01*
G75*
G02*
X206950000Y-102450000I0J-150000D01*
G01*
X206950000Y-103625000D01*
G75*
G02*
X206800000Y-103775000I-150000J0D01*
G01*
X206500000Y-103775000D01*
G75*
G02*
X206350000Y-103625000I0J150000D01*
G01*
X206350000Y-102450000D01*
G75*
G02*
X206500000Y-102300000I150000J0D01*
G01*
G37*
%TD.AperFunction*%
%TO.P,Q3,3,C*%
%TO.N,Net-(Q3-C)*%
%TA.AperFunction,SMDPad,CuDef*%
G36*
G01*
X205550000Y-104175000D02*
X205850000Y-104175000D01*
G75*
G02*
X206000000Y-104325000I0J-150000D01*
G01*
X206000000Y-105500000D01*
G75*
G02*
X205850000Y-105650000I-150000J0D01*
G01*
X205550000Y-105650000D01*
G75*
G02*
X205400000Y-105500000I0J150000D01*
G01*
X205400000Y-104325000D01*
G75*
G02*
X205550000Y-104175000I150000J0D01*
G01*
G37*
%TD.AperFunction*%
%TD*%
%TO.P,U6,1,A1*%
%TO.N,GND*%
%TA.AperFunction,SMDPad,CuDef*%
G36*
G01*
X132980000Y-80200000D02*
X133280000Y-80200000D01*
G75*
G02*
X133430000Y-80350000I0J-150000D01*
G01*
X133430000Y-82000000D01*
G75*
G02*
X133280000Y-82150000I-150000J0D01*
G01*
X132980000Y-82150000D01*
G75*
G02*
X132830000Y-82000000I0J150000D01*
G01*
X132830000Y-80350000D01*
G75*
G02*
X132980000Y-80200000I150000J0D01*
G01*
G37*
%TD.AperFunction*%
%TO.P,U6,2,A0*%
%TO.N,+3V3*%
%TA.AperFunction,SMDPad,CuDef*%
G36*
G01*
X134250000Y-80200000D02*
X134550000Y-80200000D01*
G75*
G02*
X134700000Y-80350000I0J-150000D01*
G01*
X134700000Y-82000000D01*
G75*
G02*
X134550000Y-82150000I-150000J0D01*
G01*
X134250000Y-82150000D01*
G75*
G02*
X134100000Y-82000000I0J150000D01*
G01*
X134100000Y-80350000D01*
G75*
G02*
X134250000Y-80200000I150000J0D01*
G01*
G37*
%TD.AperFunction*%
%TO.P,U6,3,SDA*%
%TO.N,/SDA*%
%TA.AperFunction,SMDPad,CuDef*%
G36*
G01*
X135520000Y-80200000D02*
X135820000Y-80200000D01*
G75*
G02*
X135970000Y-80350000I0J-150000D01*
G01*
X135970000Y-82000000D01*
G75*
G02*
X135820000Y-82150000I-150000J0D01*
G01*
X135520000Y-82150000D01*
G75*
G02*
X135370000Y-82000000I0J150000D01*
G01*
X135370000Y-80350000D01*
G75*
G02*
X135520000Y-80200000I150000J0D01*
G01*
G37*
%TD.AperFunction*%
%TO.P,U6,4,SCL*%
%TO.N,/SCL*%
%TA.AperFunction,SMDPad,CuDef*%
G36*
G01*
X136790000Y-80200000D02*
X137090000Y-80200000D01*
G75*
G02*
X137240000Y-80350000I0J-150000D01*
G01*
X137240000Y-82000000D01*
G75*
G02*
X137090000Y-82150000I-150000J0D01*
G01*
X136790000Y-82150000D01*
G75*
G02*
X136640000Y-82000000I0J150000D01*
G01*
X136640000Y-80350000D01*
G75*
G02*
X136790000Y-80200000I150000J0D01*
G01*
G37*
%TD.AperFunction*%
%TO.P,U6,5,VS*%
%TO.N,+3V3*%
%TA.AperFunction,SMDPad,CuDef*%
G36*
G01*
X136790000Y-85150000D02*
X137090000Y-85150000D01*
G75*
G02*
X137240000Y-85300000I0J-150000D01*
G01*
X137240000Y-86950000D01*
G75*
G02*
X137090000Y-87100000I-150000J0D01*
G01*
X136790000Y-87100000D01*
G75*
G02*
X136640000Y-86950000I0J150000D01*
G01*
X136640000Y-85300000D01*
G75*
G02*
X136790000Y-85150000I150000J0D01*
G01*
G37*
%TD.AperFunction*%
%TO.P,U6,6,GND*%
%TO.N,GND*%
%TA.AperFunction,SMDPad,CuDef*%
G36*
G01*
X135520000Y-85150000D02*
X135820000Y-85150000D01*
G75*
G02*
X135970000Y-85300000I0J-150000D01*
G01*
X135970000Y-86950000D01*
G75*
G02*
X135820000Y-87100000I-150000J0D01*
G01*
X135520000Y-87100000D01*
G75*
G02*
X135370000Y-86950000I0J150000D01*
G01*
X135370000Y-85300000D01*
G75*
G02*
X135520000Y-85150000I150000J0D01*
G01*
G37*
%TD.AperFunction*%
%TO.P,U6,7,IN-*%
%TO.N,/BATTERY+*%
%TA.AperFunction,SMDPad,CuDef*%
G36*
G01*
X134250000Y-85150000D02*
X134550000Y-85150000D01*
G75*
G02*
X134700000Y-85300000I0J-150000D01*
G01*
X134700000Y-86950000D01*
G75*
G02*
X134550000Y-87100000I-150000J0D01*
G01*
X134250000Y-87100000D01*
G75*
G02*
X134100000Y-86950000I0J150000D01*
G01*
X134100000Y-85300000D01*
G75*
G02*
X134250000Y-85150000I150000J0D01*
G01*
G37*
%TD.AperFunction*%
%TO.P,U6,8,IN+*%
%TO.N,/CHARGER_LIPO*%
%TA.AperFunction,SMDPad,CuDef*%
G36*
G01*
X132980000Y-85150000D02*
X133280000Y-85150000D01*
G75*
G02*
X133430000Y-85300000I0J-150000D01*
G01*
X133430000Y-86950000D01*
G75*
G02*
X133280000Y-87100000I-150000J0D01*
G01*
X132980000Y-87100000D01*
G75*
G02*
X132830000Y-86950000I0J150000D01*
G01*
X132830000Y-85300000D01*
G75*
G02*
X132980000Y-85150000I150000J0D01*
G01*
G37*
%TD.AperFunction*%
%TD*%
%TO.P,R4,1*%
%TO.N,+3V3*%
%TA.AperFunction,SMDPad,CuDef*%
G36*
G01*
X142625000Y-86750000D02*
X141375000Y-86750000D01*
G75*
G02*
X141125000Y-86500000I0J250000D01*
G01*
X141125000Y-85700000D01*
G75*
G02*
X141375000Y-85450000I250000J0D01*
G01*
X142625000Y-85450000D01*
G75*
G02*
X142875000Y-85700000I0J-250000D01*
G01*
X142875000Y-86500000D01*
G75*
G02*
X142625000Y-86750000I-250000J0D01*
G01*
G37*
%TD.AperFunction*%
%TO.P,R4,2*%
%TO.N,/SCL*%
%TA.AperFunction,SMDPad,CuDef*%
G36*
G01*
X142625000Y-83650000D02*
X141375000Y-83650000D01*
G75*
G02*
X141125000Y-83400000I0J250000D01*
G01*
X141125000Y-82600000D01*
G75*
G02*
X141375000Y-82350000I250000J0D01*
G01*
X142625000Y-82350000D01*
G75*
G02*
X142875000Y-82600000I0J-250000D01*
G01*
X142875000Y-83400000D01*
G75*
G02*
X142625000Y-83650000I-250000J0D01*
G01*
G37*
%TD.AperFunction*%
%TD*%
%TO.P,R5,1*%
%TO.N,+BATT*%
%TA.AperFunction,SMDPad,CuDef*%
G36*
G01*
X149625000Y-62550000D02*
X150875000Y-62550000D01*
G75*
G02*
X151125000Y-62800000I0J-250000D01*
G01*
X151125000Y-63600000D01*
G75*
G02*
X150875000Y-63850000I-250000J0D01*
G01*
X149625000Y-63850000D01*
G75*
G02*
X149375000Y-63600000I0J250000D01*
G01*
X149375000Y-62800000D01*
G75*
G02*
X149625000Y-62550000I250000J0D01*
G01*
G37*
%TD.AperFunction*%
%TO.P,R5,2*%
%TO.N,Net-(Q1-G)*%
%TA.AperFunction,SMDPad,CuDef*%
G36*
G01*
X149625000Y-65650000D02*
X150875000Y-65650000D01*
G75*
G02*
X151125000Y-65900000I0J-250000D01*
G01*
X151125000Y-66700000D01*
G75*
G02*
X150875000Y-66950000I-250000J0D01*
G01*
X149625000Y-66950000D01*
G75*
G02*
X149375000Y-66700000I0J250000D01*
G01*
X149375000Y-65900000D01*
G75*
G02*
X149625000Y-65650000I250000J0D01*
G01*
G37*
%TD.AperFunction*%
%TD*%
%TO.P,U5,1,A1*%
%TO.N,GND*%
%TA.AperFunction,SMDPad,CuDef*%
G36*
G01*
X140700000Y-73695000D02*
X140700000Y-73995000D01*
G75*
G02*
X140550000Y-74145000I-150000J0D01*
G01*
X138900000Y-74145000D01*
G75*
G02*
X138750000Y-73995000I0J150000D01*
G01*
X138750000Y-73695000D01*
G75*
G02*
X138900000Y-73545000I150000J0D01*
G01*
X140550000Y-73545000D01*
G75*
G02*
X140700000Y-73695000I0J-150000D01*
G01*
G37*
%TD.AperFunction*%
%TO.P,U5,2,A0*%
%TA.AperFunction,SMDPad,CuDef*%
G36*
G01*
X140700000Y-74965000D02*
X140700000Y-75265000D01*
G75*
G02*
X140550000Y-75415000I-150000J0D01*
G01*
X138900000Y-75415000D01*
G75*
G02*
X138750000Y-75265000I0J150000D01*
G01*
X138750000Y-74965000D01*
G75*
G02*
X138900000Y-74815000I150000J0D01*
G01*
X140550000Y-74815000D01*
G75*
G02*
X140700000Y-74965000I0J-150000D01*
G01*
G37*
%TD.AperFunction*%
%TO.P,U5,3,SDA*%
%TO.N,/SDA*%
%TA.AperFunction,SMDPad,CuDef*%
G36*
G01*
X140700000Y-76235000D02*
X140700000Y-76535000D01*
G75*
G02*
X140550000Y-76685000I-150000J0D01*
G01*
X138900000Y-76685000D01*
G75*
G02*
X138750000Y-76535000I0J150000D01*
G01*
X138750000Y-76235000D01*
G75*
G02*
X138900000Y-76085000I150000J0D01*
G01*
X140550000Y-76085000D01*
G75*
G02*
X140700000Y-76235000I0J-150000D01*
G01*
G37*
%TD.AperFunction*%
%TO.P,U5,4,SCL*%
%TO.N,/SCL*%
%TA.AperFunction,SMDPad,CuDef*%
G36*
G01*
X140700000Y-77505000D02*
X140700000Y-77805000D01*
G75*
G02*
X140550000Y-77955000I-150000J0D01*
G01*
X138900000Y-77955000D01*
G75*
G02*
X138750000Y-77805000I0J150000D01*
G01*
X138750000Y-77505000D01*
G75*
G02*
X138900000Y-77355000I150000J0D01*
G01*
X140550000Y-77355000D01*
G75*
G02*
X140700000Y-77505000I0J-150000D01*
G01*
G37*
%TD.AperFunction*%
%TO.P,U5,5,VS*%
%TO.N,+3V3*%
%TA.AperFunction,SMDPad,CuDef*%
G36*
G01*
X135750000Y-77505000D02*
X135750000Y-77805000D01*
G75*
G02*
X135600000Y-77955000I-150000J0D01*
G01*
X133950000Y-77955000D01*
G75*
G02*
X133800000Y-77805000I0J150000D01*
G01*
X133800000Y-77505000D01*
G75*
G02*
X133950000Y-77355000I150000J0D01*
G01*
X135600000Y-77355000D01*
G75*
G02*
X135750000Y-77505000I0J-150000D01*
G01*
G37*
%TD.AperFunction*%
%TO.P,U5,6,GND*%
%TO.N,GND*%
%TA.AperFunction,SMDPad,CuDef*%
G36*
G01*
X135750000Y-76235000D02*
X135750000Y-76535000D01*
G75*
G02*
X135600000Y-76685000I-150000J0D01*
G01*
X133950000Y-76685000D01*
G75*
G02*
X133800000Y-76535000I0J150000D01*
G01*
X133800000Y-76235000D01*
G75*
G02*
X133950000Y-76085000I150000J0D01*
G01*
X135600000Y-76085000D01*
G75*
G02*
X135750000Y-76235000I0J-150000D01*
G01*
G37*
%TD.AperFunction*%
%TO.P,U5,7,IN-*%
%TO.N,/CHARGER_V+*%
%TA.AperFunction,SMDPad,CuDef*%
G36*
G01*
X135750000Y-74965000D02*
X135750000Y-75265000D01*
G75*
G02*
X135600000Y-75415000I-150000J0D01*
G01*
X133950000Y-75415000D01*
G75*
G02*
X133800000Y-75265000I0J150000D01*
G01*
X133800000Y-74965000D01*
G75*
G02*
X133950000Y-74815000I150000J0D01*
G01*
X135600000Y-74815000D01*
G75*
G02*
X135750000Y-74965000I0J-150000D01*
G01*
G37*
%TD.AperFunction*%
%TO.P,U5,8,IN+*%
%TO.N,/SOLAR_V+*%
%TA.AperFunction,SMDPad,CuDef*%
G36*
G01*
X135750000Y-73695000D02*
X135750000Y-73995000D01*
G75*
G02*
X135600000Y-74145000I-150000J0D01*
G01*
X133950000Y-74145000D01*
G75*
G02*
X133800000Y-73995000I0J150000D01*
G01*
X133800000Y-73695000D01*
G75*
G02*
X133950000Y-73545000I150000J0D01*
G01*
X135600000Y-73545000D01*
G75*
G02*
X135750000Y-73695000I0J-150000D01*
G01*
G37*
%TD.AperFunction*%
%TD*%
D11*
%TO.N,Net-(Q3-C)*%
X203700000Y-106925000D02*
X205637500Y-106925000D01*
X205637500Y-106925000D02*
X205750000Y-107037500D01*
X205750000Y-107037500D02*
X205750000Y-104962500D01*
X205750000Y-104962500D02*
X205700000Y-104912500D01*
%TO.N,Net-(Q3-B)*%
X206050001Y-101000000D02*
X204750000Y-102300001D01*
X209200000Y-102250000D02*
X207950000Y-101000000D01*
X204750000Y-102300001D02*
X204750000Y-103037500D01*
X207950000Y-101000000D02*
X206050001Y-101000000D01*
%TO.N,+3V3*%
X138062500Y-91687500D02*
X138062500Y-89750000D01*
X206700000Y-108912500D02*
X206700000Y-109662500D01*
X136940000Y-86125000D02*
X138000000Y-86125000D01*
X136500000Y-84250000D02*
X136940000Y-84690000D01*
D12*
X205750000Y-64225239D02*
X205750000Y-76780000D01*
D11*
X203700000Y-110025000D02*
X202525000Y-110025000D01*
X134400000Y-78030000D02*
X134775000Y-77655000D01*
D12*
X205750000Y-98000000D02*
X205750000Y-76780000D01*
D11*
X139475000Y-86125000D02*
X139500000Y-86100000D01*
X207396142Y-98000000D02*
X210900000Y-101503858D01*
X206700000Y-109662500D02*
X206337500Y-110025000D01*
X206337500Y-110025000D02*
X203700000Y-110025000D01*
X136940000Y-84690000D02*
X136940000Y-86125000D01*
X202525000Y-110025000D02*
X200975000Y-108475000D01*
X118250000Y-131750000D02*
X114000000Y-127500000D01*
D12*
X205750000Y-76780000D02*
X209750000Y-76780000D01*
D11*
X212000000Y-105000000D02*
X212000000Y-122250000D01*
X135500000Y-84250000D02*
X136500000Y-84250000D01*
X134400000Y-81175000D02*
X134400000Y-83150000D01*
X200975000Y-98525000D02*
X201500000Y-98000000D01*
X138062500Y-89750000D02*
X138062500Y-86187500D01*
X138062500Y-86187500D02*
X138000000Y-86125000D01*
X200975000Y-108475000D02*
X200975000Y-98525000D01*
X210900000Y-101503858D02*
X210900000Y-103900000D01*
X210900000Y-103900000D02*
X212000000Y-105000000D01*
X134400000Y-81175000D02*
X134400000Y-78030000D01*
D12*
X205750000Y-98000000D02*
X201500000Y-98000000D01*
X209750000Y-76780000D02*
X214390000Y-76780000D01*
D11*
X202500000Y-131750000D02*
X118250000Y-131750000D01*
D12*
X165411314Y-70630000D02*
X175541314Y-60500000D01*
X202024761Y-60500000D02*
X205750000Y-64225239D01*
D11*
X205750000Y-98000000D02*
X207396142Y-98000000D01*
X138000000Y-86125000D02*
X139475000Y-86125000D01*
X139500000Y-86100000D02*
X142000000Y-86100000D01*
X114000000Y-127500000D02*
X114000000Y-115750000D01*
X212000000Y-122250000D02*
X202500000Y-131750000D01*
X134400000Y-83150000D02*
X135500000Y-84250000D01*
D12*
X156710000Y-70630000D02*
X165411314Y-70630000D01*
X175541314Y-60500000D02*
X202024761Y-60500000D01*
D11*
X114000000Y-115750000D02*
X138062500Y-91687500D01*
D12*
%TO.N,+5V*%
X143750000Y-110000000D02*
X143750000Y-101570000D01*
X143750000Y-101570000D02*
X147570000Y-97750000D01*
X147570000Y-97750000D02*
X150070000Y-95250000D01*
X170080000Y-96330000D02*
X170080000Y-97750000D01*
X150070000Y-95250000D02*
X169000000Y-95250000D01*
X169000000Y-95250000D02*
X170080000Y-96330000D01*
X147570000Y-97750000D02*
X149000000Y-97750000D01*
D11*
%TO.N,/GPS_TX*%
X163780000Y-103825000D02*
X162530000Y-103825000D01*
X165030000Y-103825000D02*
X163780000Y-103825000D01*
X165030000Y-103825000D02*
X183675000Y-103825000D01*
X183675000Y-103825000D02*
X192940000Y-94560000D01*
X192940000Y-94560000D02*
X196610000Y-94560000D01*
%TO.N,Net-(J1-TX)*%
X165030000Y-97780000D02*
X165000000Y-97750000D01*
X165000000Y-100695000D02*
X165030000Y-100725000D01*
X165030000Y-100725000D02*
X165030000Y-97780000D01*
%TO.N,/CHARGER_PGOOD*%
X117547919Y-79300000D02*
X113500000Y-75252081D01*
X113499999Y-62377101D02*
X119627100Y-56250000D01*
X118750000Y-79300000D02*
X117547919Y-79300000D01*
X119627100Y-56250000D02*
X212250000Y-56250000D01*
X113500000Y-75252081D02*
X113499999Y-63205527D01*
X212250000Y-56250000D02*
X220000000Y-64000000D01*
X218610000Y-99640000D02*
X214390000Y-99640000D01*
X220000000Y-98250000D02*
X218610000Y-99640000D01*
X220000000Y-64000000D02*
X220000000Y-98250000D01*
X113499999Y-63205527D02*
X113499999Y-62377101D01*
D12*
%TO.N,+BATT*%
X202662919Y-58635000D02*
X147000000Y-58635000D01*
X116970000Y-74220000D02*
X118750000Y-74220000D01*
X115885000Y-63365000D02*
X115885000Y-73135000D01*
D11*
X150250000Y-63200000D02*
X147050000Y-63200000D01*
D12*
X147000000Y-63250000D02*
X147000000Y-58635000D01*
X120615000Y-58635000D02*
X115885000Y-63365000D01*
X214390000Y-69160000D02*
X213187919Y-69160000D01*
X115885000Y-73135000D02*
X116970000Y-74220000D01*
D11*
X147050000Y-63200000D02*
X147000000Y-63250000D01*
D12*
X213187919Y-69160000D02*
X202662919Y-58635000D01*
X147000000Y-58635000D02*
X120615000Y-58635000D01*
X147000000Y-63250000D02*
X147000000Y-64312500D01*
D11*
%TO.N,/CHARGER_CHG*%
X114500000Y-62791314D02*
X120041314Y-57250000D01*
X219000000Y-64414214D02*
X219000000Y-93500000D01*
X118750000Y-76760000D02*
X117547919Y-76760000D01*
X211835786Y-57250000D02*
X219000000Y-64414214D01*
X217940000Y-94560000D02*
X214390000Y-94560000D01*
X118750000Y-76760000D02*
X118760000Y-76760000D01*
X219000000Y-93500000D02*
X217940000Y-94560000D01*
X114500000Y-73712081D02*
X114500000Y-62791314D01*
X120041314Y-57250000D02*
X211835786Y-57250000D01*
X117547919Y-76760000D02*
X114500000Y-73712081D01*
%TO.N,/CHARGER_LIPO*%
X122700000Y-75695000D02*
X122700000Y-75250000D01*
X133130000Y-86125000D02*
X122700000Y-75695000D01*
D12*
X119952081Y-69140000D02*
X122700000Y-71887919D01*
X118750000Y-69140000D02*
X119952081Y-69140000D01*
X122700000Y-71887919D02*
X122700000Y-75250000D01*
%TO.N,/SOLAR_V+*%
X136975000Y-65500000D02*
X137025000Y-65550000D01*
X139050000Y-67575000D02*
X139050000Y-69750000D01*
D11*
X138870000Y-69750000D02*
X139050000Y-69750000D01*
D12*
X136975000Y-64540000D02*
X136975000Y-65500000D01*
D11*
X134775000Y-73845000D02*
X138870000Y-69750000D01*
D12*
X139000000Y-64540000D02*
X136975000Y-64540000D01*
X137025000Y-65550000D02*
X139050000Y-67575000D01*
X136975000Y-64540000D02*
X135000000Y-64540000D01*
D11*
%TO.N,/CHARGER_V+*%
X132950000Y-74950000D02*
X132950000Y-69750000D01*
X133115000Y-75115000D02*
X132950000Y-74950000D01*
D12*
X131000000Y-64540000D02*
X131000000Y-65750000D01*
D11*
X134775000Y-75115000D02*
X133115000Y-75115000D01*
D12*
X131000000Y-65750000D02*
X133025000Y-67775000D01*
X133025000Y-67775000D02*
X133025000Y-68825000D01*
D11*
%TO.N,/RPI_MOSI*%
X220960000Y-107210000D02*
X222250000Y-107210000D01*
X214390000Y-104720000D02*
X218470000Y-104720000D01*
X218470000Y-104720000D02*
X220960000Y-107210000D01*
%TO.N,/RPI_SCK*%
X220250000Y-109750000D02*
X222250000Y-109750000D01*
X214390000Y-107260000D02*
X217760000Y-107260000D01*
X217760000Y-107260000D02*
X220250000Y-109750000D01*
%TO.N,/RPI_MISO*%
X214390000Y-114880000D02*
X222200000Y-114880000D01*
X222200000Y-114880000D02*
X222250000Y-114830000D01*
%TO.N,GND*%
X209750000Y-105750000D02*
X210000000Y-106000000D01*
X133115000Y-76385000D02*
X134775000Y-76385000D01*
X138598838Y-75115000D02*
X139725000Y-75115000D01*
X159500000Y-100290000D02*
X162095000Y-100290000D01*
X134775000Y-76385000D02*
X137328838Y-76385000D01*
X134937500Y-89750000D02*
X134500000Y-89750000D01*
X189500000Y-75750000D02*
X193550000Y-71700000D01*
X185810000Y-117690000D02*
X193750000Y-109750000D01*
X133130000Y-79130000D02*
X132500000Y-78500000D01*
X162095000Y-100290000D02*
X162530000Y-100725000D01*
X156710000Y-73170000D02*
X168670000Y-73170000D01*
D12*
X139000000Y-62000000D02*
X135000000Y-62000000D01*
D11*
X148050000Y-70437500D02*
X148750000Y-71137500D01*
X129850000Y-117690000D02*
X185810000Y-117690000D01*
X172250000Y-76750000D02*
X172250000Y-89375000D01*
X134500000Y-89750000D02*
X134210000Y-89460000D01*
X149500000Y-75500000D02*
X151750000Y-75500000D01*
X135670000Y-86125000D02*
X135670000Y-89017500D01*
X141500000Y-63000000D02*
X140500000Y-62000000D01*
X139725000Y-73845000D02*
X141250000Y-73845000D01*
D12*
X120925000Y-64425000D02*
X118750000Y-66600000D01*
D11*
X160750000Y-106250000D02*
X159500000Y-105000000D01*
X194050000Y-109800000D02*
X196610000Y-109800000D01*
X187460000Y-106250000D02*
X160750000Y-106250000D01*
X189500000Y-83000000D02*
X189500000Y-75750000D01*
X149000000Y-111000000D02*
X149000000Y-100290000D01*
X181250000Y-91250000D02*
X189500000Y-83000000D01*
X129100000Y-120980000D02*
X129100000Y-118440000D01*
X193750000Y-109750000D02*
X194000000Y-109750000D01*
X134210000Y-89460000D02*
X118750000Y-89460000D01*
X148750000Y-71137500D02*
X148750000Y-74750000D01*
X115750000Y-117585786D02*
X115750000Y-127250000D01*
D12*
X127000000Y-62000000D02*
X123350000Y-62000000D01*
D11*
X149000000Y-100290000D02*
X159500000Y-100290000D01*
X139725000Y-75115000D02*
X139725000Y-73845000D01*
D12*
X135000000Y-62000000D02*
X131000000Y-62000000D01*
D11*
X123335786Y-110000000D02*
X115750000Y-117585786D01*
X126250000Y-110000000D02*
X137000000Y-110000000D01*
X140250000Y-113250000D02*
X146750000Y-113250000D01*
X154080000Y-73170000D02*
X156710000Y-73170000D01*
X196610000Y-97100000D02*
X187460000Y-106250000D01*
X148750000Y-74750000D02*
X149500000Y-75500000D01*
X147062500Y-70437500D02*
X148050000Y-70437500D01*
X132500000Y-77000000D02*
X133115000Y-76385000D01*
X126250000Y-110000000D02*
X123335786Y-110000000D01*
X207037500Y-103037500D02*
X206650000Y-103037500D01*
X133130000Y-81175000D02*
X133130000Y-79130000D01*
X143655000Y-73845000D02*
X147062500Y-70437500D01*
X135670000Y-89017500D02*
X134937500Y-89750000D01*
X194000000Y-109750000D02*
X194050000Y-109800000D01*
X193550000Y-71700000D02*
X196610000Y-71700000D01*
X119350000Y-120980000D02*
X119350000Y-118440000D01*
D12*
X120925000Y-64425000D02*
X120925000Y-65175000D01*
D11*
X119000000Y-130500000D02*
X199000000Y-130500000D01*
D12*
X120925000Y-65175000D02*
X126250000Y-70500000D01*
D11*
X119350000Y-118440000D02*
X129100000Y-118440000D01*
D12*
X131000000Y-62000000D02*
X127000000Y-62000000D01*
D11*
X172250000Y-89375000D02*
X174125000Y-91250000D01*
X162530000Y-100725000D02*
X162530000Y-97820000D01*
X199000000Y-130500000D02*
X210000000Y-119500000D01*
X137000000Y-110000000D02*
X140250000Y-113250000D01*
X151750000Y-75500000D02*
X154080000Y-73170000D01*
X140500000Y-62000000D02*
X139000000Y-62000000D01*
X168670000Y-73170000D02*
X172250000Y-76750000D01*
X132500000Y-78500000D02*
X132500000Y-77000000D01*
X141250000Y-73845000D02*
X143655000Y-73845000D01*
X159500000Y-105000000D02*
X159500000Y-100290000D01*
X129100000Y-118440000D02*
X129850000Y-117690000D01*
X146750000Y-113250000D02*
X149000000Y-111000000D01*
X141500000Y-73595000D02*
X141500000Y-63000000D01*
X137328838Y-76385000D02*
X138598838Y-75115000D01*
X115750000Y-127250000D02*
X119000000Y-130500000D01*
X174125000Y-91250000D02*
X181250000Y-91250000D01*
X210000000Y-106000000D02*
X207037500Y-103037500D01*
X210000000Y-119500000D02*
X210000000Y-106000000D01*
X162530000Y-97820000D02*
X162460000Y-97750000D01*
D12*
X123350000Y-62000000D02*
X120925000Y-64425000D01*
D11*
%TO.N,/RPI_CS*%
X222200000Y-112340000D02*
X222250000Y-112290000D01*
X214390000Y-112340000D02*
X222200000Y-112340000D01*
D12*
%TO.N,/BATTERY+*%
X129025000Y-68275000D02*
X129025000Y-75025000D01*
D11*
X134400000Y-86125000D02*
X134400000Y-85064214D01*
X134400000Y-85064214D02*
X128800000Y-79464214D01*
D12*
X127000000Y-66250000D02*
X127000000Y-64540000D01*
X127000000Y-66250000D02*
X129025000Y-68275000D01*
X129025000Y-75025000D02*
X128800000Y-75250000D01*
D11*
X128800000Y-79464214D02*
X128800000Y-75250000D01*
%TO.N,+3V3_SENSOR*%
X119350000Y-126060000D02*
X129100000Y-126060000D01*
X208750000Y-110250000D02*
X206750000Y-112250000D01*
X200250000Y-113250000D02*
X200250000Y-123250000D01*
X200250000Y-123250000D02*
X197440000Y-126060000D01*
X201250000Y-112250000D02*
X200250000Y-113250000D01*
X197440000Y-126060000D02*
X129100000Y-126060000D01*
X206750000Y-112250000D02*
X201250000Y-112250000D01*
X208750000Y-108137500D02*
X208750000Y-110250000D01*
X207650000Y-107037500D02*
X208750000Y-108137500D01*
%TO.N,/NB-IOT_TX*%
X176115000Y-61885000D02*
X198135000Y-61885000D01*
X198135000Y-61885000D02*
X199000000Y-62750000D01*
X173250000Y-64750000D02*
X176115000Y-61885000D01*
X199000000Y-68500000D02*
X198340000Y-69160000D01*
X176170000Y-88410000D02*
X173250000Y-85490000D01*
X173250000Y-85490000D02*
X173250000Y-64750000D01*
X199000000Y-62750000D02*
X199000000Y-68500000D01*
X198340000Y-69160000D02*
X196610000Y-69160000D01*
X177170000Y-88410000D02*
X176170000Y-88410000D01*
%TO.N,/NB-IOT_RST*%
X162865000Y-90865000D02*
X172107642Y-90865000D01*
X181835786Y-92250000D02*
X190500000Y-83585786D01*
X193760000Y-74240000D02*
X196610000Y-74240000D01*
X172107642Y-90865000D02*
X173492642Y-92250000D01*
X156710000Y-85870000D02*
X157870000Y-85870000D01*
X157870000Y-85870000D02*
X162865000Y-90865000D01*
X190500000Y-77500000D02*
X193760000Y-74240000D01*
X173492642Y-92250000D02*
X181835786Y-92250000D01*
X190500000Y-83585786D02*
X190500000Y-77500000D01*
%TO.N,/NB-IOT_RX*%
X177170000Y-85870000D02*
X176170000Y-85870000D01*
X174250000Y-83950000D02*
X174250000Y-65164214D01*
X176170000Y-85870000D02*
X174250000Y-83950000D01*
X192875000Y-62885000D02*
X196610000Y-66620000D01*
X174250000Y-65164214D02*
X176529214Y-62885000D01*
X176529214Y-62885000D02*
X192875000Y-62885000D01*
D12*
%TO.N,Net-(Q1-S)*%
X143750000Y-68487500D02*
X146050000Y-66187500D01*
X143750000Y-68487500D02*
X143750000Y-70500000D01*
D11*
%TO.N,Net-(Q1-G)*%
X149000000Y-68562500D02*
X149000000Y-66300000D01*
X148062500Y-66300000D02*
X147950000Y-66187500D01*
X149000000Y-66300000D02*
X148062500Y-66300000D01*
X150250000Y-66300000D02*
X149000000Y-66300000D01*
%TO.N,Net-(Q2-B)*%
X149950000Y-70437500D02*
X149950000Y-72400000D01*
X149950000Y-72400000D02*
X150550000Y-73000000D01*
%TO.N,/SDA*%
X135670000Y-81175000D02*
X135670000Y-82420000D01*
X138743052Y-76385000D02*
X135670000Y-79458052D01*
X182835786Y-94250000D02*
X172664214Y-94250000D01*
X143000000Y-77240786D02*
X142144214Y-76385000D01*
X192500000Y-81250000D02*
X192500000Y-84585786D01*
X172664214Y-94250000D02*
X171279214Y-92865000D01*
X143000000Y-79664214D02*
X143000000Y-77240786D01*
X136500000Y-83250000D02*
X139250000Y-83250000D01*
X171279214Y-92865000D02*
X156200786Y-92865000D01*
X135670000Y-82420000D02*
X136500000Y-83250000D01*
X196610000Y-79320000D02*
X194430000Y-79320000D01*
X192500000Y-84585786D02*
X182835786Y-94250000D01*
X194430000Y-79320000D02*
X192500000Y-81250000D01*
X142144214Y-76385000D02*
X139725000Y-76385000D01*
X135670000Y-79458052D02*
X135670000Y-81175000D01*
X139725000Y-76385000D02*
X138743052Y-76385000D01*
X139250000Y-83250000D02*
X139500000Y-83000000D01*
X156200786Y-92865000D02*
X143000000Y-79664214D01*
%TO.N,/5V_CONTROL*%
X191500000Y-79000000D02*
X193720000Y-76780000D01*
X147450000Y-73000000D02*
X147450000Y-82700000D01*
X191500000Y-84000000D02*
X191500000Y-79000000D01*
X182250000Y-93250000D02*
X191500000Y-84000000D01*
X147450000Y-82700000D02*
X156615000Y-91865000D01*
X196610000Y-77057258D02*
X196610000Y-77000000D01*
X171693428Y-91865000D02*
X173078428Y-93250000D01*
X173078428Y-93250000D02*
X182250000Y-93250000D01*
X156615000Y-91865000D02*
X171693428Y-91865000D01*
X193720000Y-76780000D02*
X196610000Y-76780000D01*
%TO.N,/SCL*%
X194140000Y-81860000D02*
X193500000Y-82500000D01*
X170865000Y-93865000D02*
X152865000Y-93865000D01*
X193500000Y-82500000D02*
X193500000Y-85000000D01*
X193500000Y-85000000D02*
X183000000Y-95500000D01*
X183000000Y-95500000D02*
X172500000Y-95500000D01*
X172500000Y-95500000D02*
X170865000Y-93865000D01*
X152865000Y-93865000D02*
X142000000Y-83000000D01*
X138190000Y-79190000D02*
X139725000Y-77655000D01*
X138190000Y-79190000D02*
X142000000Y-83000000D01*
X196610000Y-81860000D02*
X194140000Y-81860000D01*
X136940000Y-80440000D02*
X138190000Y-79190000D01*
X136940000Y-81175000D02*
X136940000Y-80440000D01*
%TO.N,/DHT_1*%
X118500000Y-116250000D02*
X117250000Y-117500000D01*
X181914214Y-116250000D02*
X118500000Y-116250000D01*
X118270000Y-123520000D02*
X119350000Y-123520000D01*
X117250000Y-117500000D02*
X117250000Y-122500000D01*
X190904214Y-107260000D02*
X181914214Y-116250000D01*
X196610000Y-107260000D02*
X190904214Y-107260000D01*
X117250000Y-122500000D02*
X118270000Y-123520000D01*
%TO.N,/DHT_2*%
X129100000Y-123520000D02*
X131230000Y-123520000D01*
X192240000Y-119250000D02*
X196610000Y-114880000D01*
X135500000Y-119250000D02*
X192240000Y-119250000D01*
X131230000Y-123520000D02*
X135500000Y-119250000D01*
%TO.N,/3V3_SENSOR_CONTROL*%
X212300000Y-102250000D02*
X214320000Y-102250000D01*
X214320000Y-102250000D02*
X214390000Y-102180000D01*
%TD*%
M02*
