%TF.GenerationSoftware,KiCad,Pcbnew,8.0.6*%
%TF.CreationDate,2024-11-21T14:29:30+01:00*%
%TF.ProjectId,Pollen PCB,506f6c6c-656e-4205-9043-422e6b696361,rev?*%
%TF.SameCoordinates,Original*%
%TF.FileFunction,Copper,L2,Bot*%
%TF.FilePolarity,Positive*%
%FSLAX46Y46*%
G04 Gerber Fmt 4.6, Leading zero omitted, Abs format (unit mm)*
G04 Created by KiCad (PCBNEW 8.0.6) date 2024-11-21 14:29:30*
%MOMM*%
%LPD*%
G01*
G04 APERTURE LIST*
G04 Aperture macros list*
%AMRoundRect*
0 Rectangle with rounded corners*
0 $1 Rounding radius*
0 $2 $3 $4 $5 $6 $7 $8 $9 X,Y pos of 4 corners*
0 Add a 4 corners polygon primitive as box body*
4,1,4,$2,$3,$4,$5,$6,$7,$8,$9,$2,$3,0*
0 Add four circle primitives for the rounded corners*
1,1,$1+$1,$2,$3*
1,1,$1+$1,$4,$5*
1,1,$1+$1,$6,$7*
1,1,$1+$1,$8,$9*
0 Add four rect primitives between the rounded corners*
20,1,$1+$1,$2,$3,$4,$5,0*
20,1,$1+$1,$4,$5,$6,$7,0*
20,1,$1+$1,$6,$7,$8,$9,0*
20,1,$1+$1,$8,$9,$2,$3,0*%
G04 Aperture macros list end*
%TA.AperFunction,ComponentPad*%
%ADD10C,2.200000*%
%TD*%
%TA.AperFunction,SMDPad,CuDef*%
%ADD11RoundRect,0.250000X-0.625000X0.400000X-0.625000X-0.400000X0.625000X-0.400000X0.625000X0.400000X0*%
%TD*%
%TA.AperFunction,SMDPad,CuDef*%
%ADD12RoundRect,0.150000X-0.150000X0.587500X-0.150000X-0.587500X0.150000X-0.587500X0.150000X0.587500X0*%
%TD*%
%TA.AperFunction,SMDPad,CuDef*%
%ADD13RoundRect,0.150000X0.150000X-0.587500X0.150000X0.587500X-0.150000X0.587500X-0.150000X-0.587500X0*%
%TD*%
%TA.AperFunction,SMDPad,CuDef*%
%ADD14RoundRect,0.249999X0.450001X1.425001X-0.450001X1.425001X-0.450001X-1.425001X0.450001X-1.425001X0*%
%TD*%
%TA.AperFunction,SMDPad,CuDef*%
%ADD15RoundRect,0.250000X0.412500X0.650000X-0.412500X0.650000X-0.412500X-0.650000X0.412500X-0.650000X0*%
%TD*%
%TA.AperFunction,SMDPad,CuDef*%
%ADD16RoundRect,0.250000X0.400000X0.625000X-0.400000X0.625000X-0.400000X-0.625000X0.400000X-0.625000X0*%
%TD*%
%TA.AperFunction,SMDPad,CuDef*%
%ADD17RoundRect,0.250000X0.625000X-0.400000X0.625000X0.400000X-0.625000X0.400000X-0.625000X-0.400000X0*%
%TD*%
%TA.AperFunction,SMDPad,CuDef*%
%ADD18RoundRect,0.249999X-0.450001X-1.425001X0.450001X-1.425001X0.450001X1.425001X-0.450001X1.425001X0*%
%TD*%
%TA.AperFunction,SMDPad,CuDef*%
%ADD19RoundRect,0.250000X-0.400000X-0.625000X0.400000X-0.625000X0.400000X0.625000X-0.400000X0.625000X0*%
%TD*%
%TA.AperFunction,SMDPad,CuDef*%
%ADD20RoundRect,0.150000X-0.150000X0.825000X-0.150000X-0.825000X0.150000X-0.825000X0.150000X0.825000X0*%
%TD*%
%TA.AperFunction,SMDPad,CuDef*%
%ADD21RoundRect,0.150000X0.825000X0.150000X-0.825000X0.150000X-0.825000X-0.150000X0.825000X-0.150000X0*%
%TD*%
%TA.AperFunction,Conductor*%
%ADD22C,0.500000*%
%TD*%
%TA.AperFunction,Conductor*%
%ADD23C,1.270000*%
%TD*%
G04 APERTURE END LIST*
D10*
%TO.P,U7,1,VDD*%
%TO.N,+3V3_SENSOR*%
X97400000Y10690000D03*
%TO.P,U7,2,SDA*%
%TO.N,/DHT_2*%
X97400000Y13230000D03*
%TO.P,U7,3,GND*%
%TO.N,GND*%
X97400000Y15770000D03*
%TO.P,U7,4,GND*%
X97400000Y18310000D03*
%TD*%
%TO.P,U4,1,VDD*%
%TO.N,+3V3_SENSOR*%
X107150000Y10690000D03*
%TO.P,U4,2,SDA*%
%TO.N,/DHT_1*%
X107150000Y13230000D03*
%TO.P,U4,3,GND*%
%TO.N,GND*%
X107150000Y15770000D03*
%TO.P,U4,4,GND*%
X107150000Y18310000D03*
%TD*%
%TO.P,J8,1,GND*%
%TO.N,GND*%
X77500000Y36460000D03*
%TO.P,J8,2,V+*%
%TO.N,+5V*%
X77500000Y39000000D03*
%TD*%
%TO.P,J1,1,VCC*%
%TO.N,+5V*%
X56420000Y39000000D03*
%TO.P,J1,2,RX*%
%TO.N,unconnected-(J1-RX-Pad2)*%
X58960000Y39000000D03*
%TO.P,J1,3,TX*%
%TO.N,Net-(J1-TX)*%
X61500000Y39000000D03*
%TO.P,J1,4,GND*%
%TO.N,GND*%
X64040000Y39000000D03*
%TD*%
%TO.P,J6,1,Pin_1*%
%TO.N,/RPI_MOSI*%
X3975000Y29550000D03*
%TO.P,J6,2,Pin_2*%
%TO.N,/RPI_SCK*%
X3975000Y27010000D03*
%TO.P,J6,3,Pin_3*%
%TO.N,/RPI_CS*%
X3975000Y24470000D03*
%TO.P,J6,4,Pin_4*%
%TO.N,/RPI_MISO*%
X3975000Y21930000D03*
%TD*%
%TO.P,U2,1,GPIO0*%
%TO.N,/NB-IOT_RX*%
X29890000Y70130000D03*
%TO.P,U2,2,GPIO1*%
%TO.N,/NB-IOT_TX*%
X29890000Y67590000D03*
%TO.P,U2,3,GND*%
%TO.N,GND*%
X29890000Y65050000D03*
%TO.P,U2,4,GPIO2*%
%TO.N,/NB-IOT_RST*%
X29890000Y62510000D03*
%TO.P,U2,5,GPIO3*%
%TO.N,/5V_CONTROL*%
X29890000Y59970000D03*
%TO.P,U2,6,GPIO4*%
%TO.N,/SDA*%
X29890000Y57430000D03*
%TO.P,U2,7,GPIO5*%
%TO.N,/SCL*%
X29890000Y54890000D03*
%TO.P,U2,8,GND*%
%TO.N,GND*%
X29890000Y52350000D03*
%TO.P,U2,9,GPIO6*%
%TO.N,unconnected-(U2-GPIO6-Pad9)*%
X29890000Y49810000D03*
%TO.P,U2,10,GPIO7*%
%TO.N,unconnected-(U2-GPIO7-Pad10)*%
X29890000Y47270000D03*
%TO.P,U2,11,GPIO8*%
%TO.N,unconnected-(U2-GPIO8-Pad11)*%
X29890000Y44730000D03*
%TO.P,U2,12,GPIO9*%
%TO.N,/GPS_TX*%
X29890000Y42190000D03*
%TO.P,U2,13,GND*%
%TO.N,GND*%
X29890000Y39650000D03*
%TO.P,U2,14,GPIO10*%
%TO.N,unconnected-(U2-GPIO10-Pad14)*%
X29890000Y37110000D03*
%TO.P,U2,15,GPIO11*%
%TO.N,unconnected-(U2-GPIO11-Pad15)*%
X29890000Y34570000D03*
%TO.P,U2,16,GPIO12*%
%TO.N,unconnected-(U2-GPIO12-Pad16)*%
X29890000Y32030000D03*
%TO.P,U2,17,GPIO13*%
%TO.N,/DHT_1*%
X29890000Y29490000D03*
%TO.P,U2,18,GND*%
%TO.N,GND*%
X29890000Y26950000D03*
%TO.P,U2,19,GPIO14*%
%TO.N,unconnected-(U2-GPIO14-Pad19)*%
X29890000Y24410000D03*
%TO.P,U2,20,GPIO15*%
%TO.N,/DHT_2*%
X29890000Y21870000D03*
%TO.P,U2,21,GPIO16*%
%TO.N,/RPI_MISO*%
X12110000Y21870000D03*
%TO.P,U2,22,GPIO17*%
%TO.N,/RPI_CS*%
X12110000Y24410000D03*
%TO.P,U2,23,GND*%
%TO.N,GND*%
X12110000Y26950000D03*
%TO.P,U2,24,GPIO18*%
%TO.N,/RPI_SCK*%
X12110000Y29490000D03*
%TO.P,U2,25,GPIO19*%
%TO.N,/RPI_MOSI*%
X12110000Y32030000D03*
%TO.P,U2,26,GPIO20*%
%TO.N,/3V3_SENSOR_CONTROL*%
X12110000Y34570000D03*
%TO.P,U2,27,GPIO21*%
%TO.N,/CHARGER_PGOOD*%
X12110000Y37110000D03*
%TO.P,U2,28,GND*%
%TO.N,GND*%
X12110000Y39650000D03*
%TO.P,U2,29,GPIO22*%
%TO.N,/CHARGER_CHG*%
X12110000Y42190000D03*
%TO.P,U2,30,RUN*%
%TO.N,unconnected-(U2-RUN-Pad30)*%
X12110000Y44730000D03*
%TO.P,U2,31,GPIO26_ADC0*%
%TO.N,unconnected-(U2-GPIO26_ADC0-Pad31)*%
X12110000Y47270000D03*
%TO.P,U2,32,GPIO27_ADC1*%
%TO.N,unconnected-(U2-GPIO27_ADC1-Pad32)*%
X12110000Y49810000D03*
%TO.P,U2,33,AGND*%
%TO.N,unconnected-(U2-AGND-Pad33)*%
X12110000Y52350000D03*
%TO.P,U2,34,GPIO28_ADC2*%
%TO.N,unconnected-(U2-GPIO28_ADC2-Pad34)*%
X12110000Y54890000D03*
%TO.P,U2,35,ADC_VREF*%
%TO.N,unconnected-(U2-ADC_VREF-Pad35)*%
X12110000Y57430000D03*
%TO.P,U2,36,3V3*%
%TO.N,+3V3*%
X12110000Y59970000D03*
%TO.P,U2,37,3V3_EN*%
%TO.N,unconnected-(U2-3V3_EN-Pad37)*%
X12110000Y62510000D03*
%TO.P,U2,38,GND*%
%TO.N,GND*%
X12110000Y65050000D03*
%TO.P,U2,39,VSYS*%
%TO.N,+BATT*%
X12110000Y67590000D03*
%TO.P,U2,40,VBUS*%
%TO.N,unconnected-(U2-VBUS-Pad40)*%
X12110000Y70130000D03*
%TO.P,U2,41,SWCLK*%
%TO.N,unconnected-(U2-SWCLK-Pad41)*%
X23540000Y22100000D03*
%TO.P,U2,42,GND*%
%TO.N,unconnected-(U2-GND-Pad42)*%
X21000000Y22100000D03*
%TO.P,U2,43,SWDIO*%
%TO.N,unconnected-(U2-SWDIO-Pad43)*%
X18460000Y22100000D03*
%TD*%
%TO.P,U1,1,Pin_1*%
%TO.N,unconnected-(U1-Pin_1-Pad1)*%
X69790000Y71200000D03*
%TO.P,U1,2,Pin_2*%
%TO.N,unconnected-(U1-Pin_2-Pad2)*%
X69790000Y68660000D03*
%TO.P,U1,3,VCC*%
%TO.N,+3V3*%
X69790000Y66120000D03*
%TO.P,U1,4,GND*%
%TO.N,GND*%
X69790000Y63580000D03*
%TO.P,U1,5,Pin_5*%
%TO.N,unconnected-(U1-Pin_5-Pad5)*%
X69790000Y61040000D03*
%TO.P,U1,6,Pin_6*%
%TO.N,unconnected-(U1-Pin_6-Pad6)*%
X69790000Y58500000D03*
%TO.P,U1,7,Pin_7*%
%TO.N,unconnected-(U1-Pin_7-Pad7)*%
X69790000Y55960000D03*
%TO.P,U1,8,Pin_8*%
%TO.N,unconnected-(U1-Pin_8-Pad8)*%
X69790000Y53420000D03*
%TO.P,U1,9,RST*%
%TO.N,/NB-IOT_RST*%
X69790000Y50880000D03*
%TO.P,U1,10,Pin_10*%
%TO.N,unconnected-(U1-Pin_10-Pad10)*%
X69790000Y48340000D03*
%TO.P,U1,11,Pin_11*%
%TO.N,unconnected-(U1-Pin_11-Pad11)*%
X49330000Y71200000D03*
%TO.P,U1,12,Pin_12*%
%TO.N,unconnected-(U1-Pin_12-Pad12)*%
X49330000Y68660000D03*
%TO.P,U1,13,Pin_13*%
%TO.N,unconnected-(U1-Pin_13-Pad13)*%
X49330000Y66120000D03*
%TO.P,U1,14,Pin_14*%
%TO.N,unconnected-(U1-Pin_14-Pad14)*%
X49330000Y63580000D03*
%TO.P,U1,15,Pin_15*%
%TO.N,unconnected-(U1-Pin_15-Pad15)*%
X49330000Y61040000D03*
%TO.P,U1,16,Pin_16*%
%TO.N,unconnected-(U1-Pin_16-Pad16)*%
X49330000Y58500000D03*
%TO.P,U1,17,Pin_17*%
%TO.N,unconnected-(U1-Pin_17-Pad17)*%
X49330000Y55960000D03*
%TO.P,U1,18,Pin_18*%
%TO.N,unconnected-(U1-Pin_18-Pad18)*%
X49330000Y53420000D03*
%TO.P,U1,19,RxD*%
%TO.N,/NB-IOT_RX*%
X49330000Y50880000D03*
%TO.P,U1,20,TxD*%
%TO.N,/NB-IOT_TX*%
X49330000Y48340000D03*
%TO.P,U1,21,Pin_21*%
%TO.N,unconnected-(U1-Pin_21-Pad21)*%
X46790000Y71200000D03*
%TO.P,U1,22,Pin_22*%
%TO.N,unconnected-(U1-Pin_22-Pad22)*%
X46790000Y68660000D03*
%TO.P,U1,23,Pin_23*%
%TO.N,unconnected-(U1-Pin_23-Pad23)*%
X46790000Y66120000D03*
%TO.P,U1,24,Pin_24*%
%TO.N,unconnected-(U1-Pin_24-Pad24)*%
X46790000Y63580000D03*
%TO.P,U1,25,Pin_25*%
%TO.N,unconnected-(U1-Pin_25-Pad25)*%
X46790000Y61040000D03*
%TO.P,U1,26,Pin_26*%
%TO.N,unconnected-(U1-Pin_26-Pad26)*%
X46790000Y58500000D03*
%TO.P,U1,27,Pin_27*%
%TO.N,unconnected-(U1-Pin_27-Pad27)*%
X46790000Y55960000D03*
%TO.P,U1,28,Pin_28*%
%TO.N,unconnected-(U1-Pin_28-Pad28)*%
X46790000Y53420000D03*
%TO.P,U1,29,Pin_29*%
%TO.N,unconnected-(U1-Pin_29-Pad29)*%
X46790000Y50880000D03*
%TO.P,U1,30,Pin_30*%
%TO.N,unconnected-(U1-Pin_30-Pad30)*%
X46790000Y48340000D03*
%TD*%
%TO.P,J3,1,V+*%
%TO.N,GND*%
X87500000Y74750000D03*
%TO.P,J3,2,GND*%
%TO.N,/SOLAR_V+*%
X87500000Y72210000D03*
%TD*%
%TO.P,J4,1,V+*%
%TO.N,GND*%
X91500000Y74750000D03*
%TO.P,J4,2,GND*%
%TO.N,/SOLAR_V+*%
X91500000Y72210000D03*
%TD*%
%TO.P,J5,1,V+*%
%TO.N,GND*%
X95500000Y74750000D03*
%TO.P,J5,2,GND*%
%TO.N,/CHARGER_V+*%
X95500000Y72210000D03*
%TD*%
%TO.P,J7,1,V+*%
%TO.N,GND*%
X99500000Y74750000D03*
%TO.P,J7,2,GND*%
%TO.N,/BATTERY+*%
X99500000Y72210000D03*
%TD*%
%TO.P,U3,1,VIN*%
%TO.N,Net-(Q1-S)*%
X82750000Y66250000D03*
%TO.P,U3,2,GND*%
%TO.N,GND*%
X100250000Y66250000D03*
%TO.P,U3,3,VOUT*%
%TO.N,+5V*%
X82750000Y26750000D03*
%TO.P,U3,4,GND*%
%TO.N,GND*%
X100250000Y26750000D03*
%TD*%
%TO.P,J2,1,VBUS*%
%TO.N,unconnected-(J2-VBUS-Pad1)*%
X107750000Y44750000D03*
%TO.P,J2,2,GND*%
%TO.N,GND*%
X107750000Y47290000D03*
%TO.P,J2,3,THERM*%
%TO.N,unconnected-(J2-THERM-Pad3)*%
X107750000Y49830000D03*
%TO.P,J2,4,ISET*%
%TO.N,unconnected-(J2-ISET-Pad4)*%
X107750000Y52370000D03*
%TO.P,J2,5,CE*%
%TO.N,unconnected-(J2-CE-Pad5)*%
X107750000Y54910000D03*
%TO.P,J2,6,PGOOD*%
%TO.N,/CHARGER_PGOOD*%
X107750000Y57450000D03*
%TO.P,J2,7,CHG*%
%TO.N,/CHARGER_CHG*%
X107750000Y59990000D03*
%TO.P,J2,8,OUT*%
%TO.N,+BATT*%
X107750000Y62530000D03*
%TO.P,J2,9,GND*%
%TO.N,GND*%
X107750000Y65070000D03*
%TO.P,J2,10,LIPO*%
%TO.N,/CHARGER_LIPO*%
X107750000Y67610000D03*
%TO.P,J2,11,GND*%
%TO.N,GND*%
X107750000Y70150000D03*
%TD*%
D11*
%TO.P,R9,1*%
%TO.N,Net-(J1-TX)*%
X61470000Y36025000D03*
%TO.P,R9,2*%
%TO.N,/GPS_TX*%
X61470000Y32925000D03*
%TD*%
D12*
%TO.P,Q4,1,G*%
%TO.N,Net-(Q3-C)*%
X20750000Y29712500D03*
%TO.P,Q4,2,S*%
%TO.N,+3V3_SENSOR*%
X18850000Y29712500D03*
%TO.P,Q4,3,D*%
%TO.N,+3V3*%
X19800000Y27837500D03*
%TD*%
D13*
%TO.P,Q1,1,G*%
%TO.N,Net-(Q1-G)*%
X78550000Y70562500D03*
%TO.P,Q1,2,S*%
%TO.N,Net-(Q1-S)*%
X80450000Y70562500D03*
%TO.P,Q1,3,D*%
%TO.N,+BATT*%
X79500000Y72437500D03*
%TD*%
D14*
%TO.P,R1,1*%
%TO.N,/SOLAR_V+*%
X87450000Y67000000D03*
%TO.P,R1,2*%
%TO.N,/CHARGER_V+*%
X93550000Y67000000D03*
%TD*%
D15*
%TO.P,C1,1*%
%TO.N,+3V3*%
X88437500Y47000000D03*
%TO.P,C1,2*%
%TO.N,GND*%
X91562500Y47000000D03*
%TD*%
D16*
%TO.P,R7,1*%
%TO.N,/3V3_SENSOR_CONTROL*%
X14200000Y34500000D03*
%TO.P,R7,2*%
%TO.N,Net-(Q3-B)*%
X17300000Y34500000D03*
%TD*%
D13*
%TO.P,Q2,1,B*%
%TO.N,Net-(Q2-B)*%
X76550000Y66312500D03*
%TO.P,Q2,2,E*%
%TO.N,GND*%
X78450000Y66312500D03*
%TO.P,Q2,3,C*%
%TO.N,Net-(Q1-G)*%
X77500000Y68187500D03*
%TD*%
D17*
%TO.P,R3,1*%
%TO.N,+3V3*%
X87000000Y50650000D03*
%TO.P,R3,2*%
%TO.N,/SDA*%
X87000000Y53750000D03*
%TD*%
%TO.P,R10,1*%
%TO.N,/GPS_TX*%
X63970000Y32925000D03*
%TO.P,R10,2*%
%TO.N,GND*%
X63970000Y36025000D03*
%TD*%
%TO.P,R8,1*%
%TO.N,+3V3*%
X22800000Y26725000D03*
%TO.P,R8,2*%
%TO.N,Net-(Q3-C)*%
X22800000Y29825000D03*
%TD*%
D18*
%TO.P,R2,1*%
%TO.N,/CHARGER_LIPO*%
X103800000Y61500000D03*
%TO.P,R2,2*%
%TO.N,/BATTERY+*%
X97700000Y61500000D03*
%TD*%
D19*
%TO.P,R6,1*%
%TO.N,/5V_CONTROL*%
X79300000Y63750000D03*
%TO.P,R6,2*%
%TO.N,Net-(Q2-B)*%
X76200000Y63750000D03*
%TD*%
D12*
%TO.P,Q3,1,B*%
%TO.N,Net-(Q3-B)*%
X21750000Y33712500D03*
%TO.P,Q3,2,E*%
%TO.N,GND*%
X19850000Y33712500D03*
%TO.P,Q3,3,C*%
%TO.N,Net-(Q3-C)*%
X20800000Y31837500D03*
%TD*%
D20*
%TO.P,U6,1,A1*%
%TO.N,GND*%
X93370000Y55575000D03*
%TO.P,U6,2,A0*%
%TO.N,+3V3*%
X92100000Y55575000D03*
%TO.P,U6,3,SDA*%
%TO.N,/SDA*%
X90830000Y55575000D03*
%TO.P,U6,4,SCL*%
%TO.N,/SCL*%
X89560000Y55575000D03*
%TO.P,U6,5,VS*%
%TO.N,+3V3*%
X89560000Y50625000D03*
%TO.P,U6,6,GND*%
%TO.N,GND*%
X90830000Y50625000D03*
%TO.P,U6,7,IN-*%
%TO.N,/BATTERY+*%
X92100000Y50625000D03*
%TO.P,U6,8,IN+*%
%TO.N,/CHARGER_LIPO*%
X93370000Y50625000D03*
%TD*%
D17*
%TO.P,R4,1*%
%TO.N,+3V3*%
X84500000Y50650000D03*
%TO.P,R4,2*%
%TO.N,/SCL*%
X84500000Y53750000D03*
%TD*%
D11*
%TO.P,R5,1*%
%TO.N,+BATT*%
X76250000Y73550000D03*
%TO.P,R5,2*%
%TO.N,Net-(Q1-G)*%
X76250000Y70450000D03*
%TD*%
D21*
%TO.P,U5,1,A1*%
%TO.N,GND*%
X86775000Y62905000D03*
%TO.P,U5,2,A0*%
X86775000Y61635000D03*
%TO.P,U5,3,SDA*%
%TO.N,/SDA*%
X86775000Y60365000D03*
%TO.P,U5,4,SCL*%
%TO.N,/SCL*%
X86775000Y59095000D03*
%TO.P,U5,5,VS*%
%TO.N,+3V3*%
X91725000Y59095000D03*
%TO.P,U5,6,GND*%
%TO.N,GND*%
X91725000Y60365000D03*
%TO.P,U5,7,IN-*%
%TO.N,/CHARGER_V+*%
X91725000Y61635000D03*
%TO.P,U5,8,IN+*%
%TO.N,/SOLAR_V+*%
X91725000Y62905000D03*
%TD*%
D22*
%TO.N,Net-(Q3-C)*%
X22800000Y29825000D02*
X20862500Y29825000D01*
X20862500Y29825000D02*
X20750000Y29712500D01*
X20750000Y29712500D02*
X20750000Y31787500D01*
X20750000Y31787500D02*
X20800000Y31837500D01*
%TO.N,Net-(Q3-B)*%
X20449999Y35750000D02*
X21750000Y34449999D01*
X17300000Y34500000D02*
X18550000Y35750000D01*
X21750000Y34449999D02*
X21750000Y33712500D01*
X18550000Y35750000D02*
X20449999Y35750000D01*
%TO.N,+3V3*%
X88437500Y45062500D02*
X88437500Y47000000D01*
X19800000Y27837500D02*
X19800000Y27087500D01*
X89560000Y50625000D02*
X88500000Y50625000D01*
X90000000Y52500000D02*
X89560000Y52060000D01*
D23*
X20750000Y72524761D02*
X20750000Y59970000D01*
D22*
X22800000Y26725000D02*
X23975000Y26725000D01*
X92100000Y58720000D02*
X91725000Y59095000D01*
D23*
X20750000Y38750000D02*
X20750000Y59970000D01*
D22*
X87025000Y50625000D02*
X87000000Y50650000D01*
X19103858Y38750000D02*
X15600000Y35246142D01*
X19800000Y27087500D02*
X20162500Y26725000D01*
X20162500Y26725000D02*
X22800000Y26725000D01*
X89560000Y52060000D02*
X89560000Y50625000D01*
X23975000Y26725000D02*
X25525000Y28275000D01*
X108250000Y5000000D02*
X112500000Y9250000D01*
D23*
X20750000Y59970000D02*
X16750000Y59970000D01*
D22*
X14500000Y31750000D02*
X14500000Y14500000D01*
X91000000Y52500000D02*
X90000000Y52500000D01*
X92100000Y55575000D02*
X92100000Y53600000D01*
X25525000Y38225000D02*
X25000000Y38750000D01*
X88437500Y47000000D02*
X88437500Y50562500D01*
X88437500Y50562500D02*
X88500000Y50625000D01*
X25525000Y28275000D02*
X25525000Y38225000D01*
X15600000Y35246142D02*
X15600000Y32850000D01*
X15600000Y32850000D02*
X14500000Y31750000D01*
X92100000Y55575000D02*
X92100000Y58720000D01*
D23*
X20750000Y38750000D02*
X25000000Y38750000D01*
X16750000Y59970000D02*
X12110000Y59970000D01*
D22*
X24000000Y5000000D02*
X108250000Y5000000D01*
D23*
X61088686Y66120000D02*
X50958686Y76250000D01*
X24475239Y76250000D02*
X20750000Y72524761D01*
D22*
X20750000Y38750000D02*
X19103858Y38750000D01*
X88500000Y50625000D02*
X87025000Y50625000D01*
X87000000Y50650000D02*
X84500000Y50650000D01*
X112500000Y9250000D02*
X112500000Y21000000D01*
X14500000Y14500000D02*
X24000000Y5000000D01*
X92100000Y53600000D02*
X91000000Y52500000D01*
D23*
X69790000Y66120000D02*
X61088686Y66120000D01*
X50958686Y76250000D02*
X24475239Y76250000D01*
D22*
X112500000Y21000000D02*
X88437500Y45062500D01*
D23*
%TO.N,+5V*%
X82750000Y26750000D02*
X82750000Y35180000D01*
X82750000Y35180000D02*
X78930000Y39000000D01*
X78930000Y39000000D02*
X76430000Y41500000D01*
X56420000Y40420000D02*
X56420000Y39000000D01*
X76430000Y41500000D02*
X57500000Y41500000D01*
X57500000Y41500000D02*
X56420000Y40420000D01*
X78930000Y39000000D02*
X77500000Y39000000D01*
D22*
%TO.N,/GPS_TX*%
X62720000Y32925000D02*
X63970000Y32925000D01*
X61470000Y32925000D02*
X62720000Y32925000D01*
X61470000Y32925000D02*
X42825000Y32925000D01*
X42825000Y32925000D02*
X33560000Y42190000D01*
X33560000Y42190000D02*
X29890000Y42190000D01*
%TO.N,Net-(J1-TX)*%
X61470000Y38970000D02*
X61500000Y39000000D01*
X61500000Y36055000D02*
X61470000Y36025000D01*
X61470000Y36025000D02*
X61470000Y38970000D01*
%TO.N,/CHARGER_PGOOD*%
X108952081Y57450000D02*
X113000000Y61497919D01*
X113000001Y74372899D02*
X106872900Y80500000D01*
X107750000Y57450000D02*
X108952081Y57450000D01*
X106872900Y80500000D02*
X14250000Y80500000D01*
X113000000Y61497919D02*
X113000001Y73544473D01*
X14250000Y80500000D02*
X6500000Y72750000D01*
X7890000Y37110000D02*
X12110000Y37110000D01*
X6500000Y38500000D02*
X7890000Y37110000D01*
X6500000Y72750000D02*
X6500000Y38500000D01*
X113000001Y73544473D02*
X113000001Y74372899D01*
D23*
%TO.N,+BATT*%
X23837081Y78115000D02*
X79500000Y78115000D01*
X109530000Y62530000D02*
X107750000Y62530000D01*
X110615000Y73385000D02*
X110615000Y63615000D01*
D22*
X76250000Y73550000D02*
X79450000Y73550000D01*
D23*
X79500000Y73500000D02*
X79500000Y78115000D01*
X105885000Y78115000D02*
X110615000Y73385000D01*
X12110000Y67590000D02*
X13312081Y67590000D01*
X110615000Y63615000D02*
X109530000Y62530000D01*
D22*
X79450000Y73550000D02*
X79500000Y73500000D01*
D23*
X13312081Y67590000D02*
X23837081Y78115000D01*
X79500000Y78115000D02*
X105885000Y78115000D01*
X79500000Y73500000D02*
X79500000Y72437500D01*
D22*
%TO.N,/CHARGER_CHG*%
X112000000Y73958686D02*
X106458686Y79500000D01*
X7500000Y72335786D02*
X7500000Y43250000D01*
X107750000Y59990000D02*
X108952081Y59990000D01*
X14664214Y79500000D02*
X7500000Y72335786D01*
X8560000Y42190000D02*
X12110000Y42190000D01*
X107750000Y59990000D02*
X107740000Y59990000D01*
X7500000Y43250000D02*
X8560000Y42190000D01*
X112000000Y63037919D02*
X112000000Y73958686D01*
X106458686Y79500000D02*
X14664214Y79500000D01*
X108952081Y59990000D02*
X112000000Y63037919D01*
%TO.N,/CHARGER_LIPO*%
X103800000Y61055000D02*
X103800000Y61500000D01*
X93370000Y50625000D02*
X103800000Y61055000D01*
D23*
X106547919Y67610000D02*
X103800000Y64862081D01*
X107750000Y67610000D02*
X106547919Y67610000D01*
X103800000Y64862081D02*
X103800000Y61500000D01*
%TO.N,/SOLAR_V+*%
X89525000Y71250000D02*
X89475000Y71200000D01*
X87450000Y69175000D02*
X87450000Y67000000D01*
D22*
X87630000Y67000000D02*
X87450000Y67000000D01*
D23*
X89525000Y72210000D02*
X89525000Y71250000D01*
D22*
X91725000Y62905000D02*
X87630000Y67000000D01*
D23*
X87500000Y72210000D02*
X89525000Y72210000D01*
X89475000Y71200000D02*
X87450000Y69175000D01*
X89525000Y72210000D02*
X91500000Y72210000D01*
D22*
%TO.N,/CHARGER_V+*%
X93550000Y61800000D02*
X93550000Y67000000D01*
X93385000Y61635000D02*
X93550000Y61800000D01*
D23*
X95500000Y72210000D02*
X95500000Y71000000D01*
D22*
X91725000Y61635000D02*
X93385000Y61635000D01*
D23*
X95500000Y71000000D02*
X93475000Y68975000D01*
X93475000Y68975000D02*
X93475000Y67925000D01*
D22*
%TO.N,/RPI_MOSI*%
X5540000Y29540000D02*
X4250000Y29540000D01*
X12110000Y32030000D02*
X8030000Y32030000D01*
X8030000Y32030000D02*
X5540000Y29540000D01*
%TO.N,/RPI_SCK*%
X6250000Y27000000D02*
X4250000Y27000000D01*
X12110000Y29490000D02*
X8740000Y29490000D01*
X8740000Y29490000D02*
X6250000Y27000000D01*
%TO.N,/RPI_MISO*%
X12110000Y21870000D02*
X4300000Y21870000D01*
X4300000Y21870000D02*
X4250000Y21920000D01*
%TO.N,GND*%
X16750000Y31000000D02*
X16500000Y30750000D01*
X93385000Y60365000D02*
X91725000Y60365000D01*
X87901162Y61635000D02*
X86775000Y61635000D01*
X67000000Y36460000D02*
X64405000Y36460000D01*
X91725000Y60365000D02*
X89171162Y60365000D01*
X91562500Y47000000D02*
X92000000Y47000000D01*
X37000000Y61000000D02*
X32950000Y65050000D01*
X40690000Y19060000D02*
X32750000Y27000000D01*
X93370000Y57620000D02*
X94000000Y58250000D01*
X64405000Y36460000D02*
X63970000Y36025000D01*
X69790000Y63580000D02*
X57830000Y63580000D01*
D23*
X87500000Y74750000D02*
X91500000Y74750000D01*
D22*
X78450000Y66312500D02*
X77750000Y65612500D01*
X96650000Y19060000D02*
X40690000Y19060000D01*
X54250000Y60000000D02*
X54250000Y47375000D01*
X92000000Y47000000D02*
X92290000Y47290000D01*
X77000000Y61250000D02*
X74750000Y61250000D01*
X90830000Y50625000D02*
X90830000Y47732500D01*
X85000000Y73750000D02*
X86000000Y74750000D01*
X86775000Y62905000D02*
X85250000Y62905000D01*
D23*
X105575000Y72325000D02*
X107750000Y70150000D01*
D22*
X65750000Y30500000D02*
X67000000Y31750000D01*
X32450000Y26950000D02*
X29890000Y26950000D01*
X39040000Y30500000D02*
X65750000Y30500000D01*
X37000000Y53750000D02*
X37000000Y61000000D01*
X77500000Y25750000D02*
X77500000Y36460000D01*
X45250000Y45500000D02*
X37000000Y53750000D01*
X97400000Y15770000D02*
X97400000Y18310000D01*
X32750000Y27000000D02*
X32500000Y27000000D01*
X92290000Y47290000D02*
X107750000Y47290000D01*
X77750000Y65612500D02*
X77750000Y62000000D01*
X110750000Y19164214D02*
X110750000Y9500000D01*
D23*
X99500000Y74750000D02*
X103150000Y74750000D01*
D22*
X77500000Y36460000D02*
X67000000Y36460000D01*
X86775000Y61635000D02*
X86775000Y62905000D01*
D23*
X91500000Y74750000D02*
X95500000Y74750000D01*
D22*
X103164214Y26750000D02*
X110750000Y19164214D01*
X100250000Y26750000D02*
X89500000Y26750000D01*
X86250000Y23500000D02*
X79750000Y23500000D01*
X72420000Y63580000D02*
X69790000Y63580000D01*
X29890000Y39650000D02*
X39040000Y30500000D01*
X77750000Y62000000D02*
X77000000Y61250000D01*
X79437500Y66312500D02*
X78450000Y66312500D01*
X94000000Y59750000D02*
X93385000Y60365000D01*
X100250000Y26750000D02*
X103164214Y26750000D01*
X19462500Y33712500D02*
X19850000Y33712500D01*
X93370000Y55575000D02*
X93370000Y57620000D01*
X82845000Y62905000D02*
X79437500Y66312500D01*
X90830000Y47732500D02*
X91562500Y47000000D01*
X32500000Y27000000D02*
X32450000Y26950000D01*
X32950000Y65050000D02*
X29890000Y65050000D01*
X107150000Y15770000D02*
X107150000Y18310000D01*
D23*
X105575000Y72325000D02*
X105575000Y71575000D01*
D22*
X107500000Y6250000D02*
X27500000Y6250000D01*
D23*
X105575000Y71575000D02*
X100250000Y66250000D01*
D22*
X107150000Y18310000D02*
X97400000Y18310000D01*
D23*
X95500000Y74750000D02*
X99500000Y74750000D01*
D22*
X54250000Y47375000D02*
X52375000Y45500000D01*
X63970000Y36025000D02*
X63970000Y38930000D01*
X27500000Y6250000D02*
X16500000Y17250000D01*
X89500000Y26750000D02*
X86250000Y23500000D01*
X74750000Y61250000D02*
X72420000Y63580000D01*
X86000000Y74750000D02*
X87500000Y74750000D01*
X57830000Y63580000D02*
X54250000Y60000000D01*
X94000000Y58250000D02*
X94000000Y59750000D01*
X85250000Y62905000D02*
X82845000Y62905000D01*
X67000000Y31750000D02*
X67000000Y36460000D01*
X97400000Y18310000D02*
X96650000Y19060000D01*
X79750000Y23500000D02*
X77500000Y25750000D01*
X85000000Y63155000D02*
X85000000Y73750000D01*
X89171162Y60365000D02*
X87901162Y61635000D01*
X110750000Y9500000D02*
X107500000Y6250000D01*
X52375000Y45500000D02*
X45250000Y45500000D01*
X16500000Y30750000D02*
X19462500Y33712500D01*
X16500000Y17250000D02*
X16500000Y30750000D01*
X63970000Y38930000D02*
X64040000Y39000000D01*
D23*
X103150000Y74750000D02*
X105575000Y72325000D01*
D22*
%TO.N,/RPI_CS*%
X4300000Y24410000D02*
X4250000Y24460000D01*
X12110000Y24410000D02*
X4300000Y24410000D01*
D23*
%TO.N,/BATTERY+*%
X97475000Y68475000D02*
X97475000Y61725000D01*
D22*
X92100000Y50625000D02*
X92100000Y51685786D01*
X92100000Y51685786D02*
X97700000Y57285786D01*
D23*
X99500000Y70500000D02*
X99500000Y72210000D01*
X99500000Y70500000D02*
X97475000Y68475000D01*
X97475000Y61725000D02*
X97700000Y61500000D01*
D22*
X97700000Y57285786D02*
X97700000Y61500000D01*
%TO.N,+3V3_SENSOR*%
X107150000Y10690000D02*
X97400000Y10690000D01*
X17750000Y26500000D02*
X19750000Y24500000D01*
X26250000Y23500000D02*
X26250000Y13500000D01*
X26250000Y13500000D02*
X29060000Y10690000D01*
X25250000Y24500000D02*
X26250000Y23500000D01*
X29060000Y10690000D02*
X97400000Y10690000D01*
X19750000Y24500000D02*
X25250000Y24500000D01*
X17750000Y28612500D02*
X17750000Y26500000D01*
X18850000Y29712500D02*
X17750000Y28612500D01*
%TO.N,/NB-IOT_TX*%
X50385000Y74865000D02*
X28365000Y74865000D01*
X28365000Y74865000D02*
X27500000Y74000000D01*
X53250000Y72000000D02*
X50385000Y74865000D01*
X27500000Y68250000D02*
X28160000Y67590000D01*
X50330000Y48340000D02*
X53250000Y51260000D01*
X53250000Y51260000D02*
X53250000Y72000000D01*
X27500000Y74000000D02*
X27500000Y68250000D01*
X28160000Y67590000D02*
X29890000Y67590000D01*
X49330000Y48340000D02*
X50330000Y48340000D01*
%TO.N,/NB-IOT_RST*%
X63635000Y45885000D02*
X54392358Y45885000D01*
X44664214Y44500000D02*
X36000000Y53164214D01*
X32740000Y62510000D02*
X29890000Y62510000D01*
X54392358Y45885000D02*
X53007358Y44500000D01*
X69790000Y50880000D02*
X68630000Y50880000D01*
X68630000Y50880000D02*
X63635000Y45885000D01*
X36000000Y59250000D02*
X32740000Y62510000D01*
X53007358Y44500000D02*
X44664214Y44500000D01*
X36000000Y53164214D02*
X36000000Y59250000D01*
%TO.N,/NB-IOT_RX*%
X49330000Y50880000D02*
X50330000Y50880000D01*
X52250000Y52800000D02*
X52250000Y71585786D01*
X50330000Y50880000D02*
X52250000Y52800000D01*
X33625000Y73865000D02*
X29890000Y70130000D01*
X52250000Y71585786D02*
X49970786Y73865000D01*
X49970786Y73865000D02*
X33625000Y73865000D01*
D23*
%TO.N,Net-(Q1-S)*%
X82750000Y68262500D02*
X80450000Y70562500D01*
X82750000Y68262500D02*
X82750000Y66250000D01*
D22*
%TO.N,Net-(Q1-G)*%
X77500000Y68187500D02*
X77500000Y70450000D01*
X78437500Y70450000D02*
X78550000Y70562500D01*
X77500000Y70450000D02*
X78437500Y70450000D01*
X76250000Y70450000D02*
X77500000Y70450000D01*
%TO.N,Net-(Q2-B)*%
X76550000Y66312500D02*
X76550000Y64350000D01*
X76550000Y64350000D02*
X75950000Y63750000D01*
%TO.N,/SDA*%
X90830000Y55575000D02*
X90830000Y54330000D01*
X87756948Y60365000D02*
X90830000Y57291948D01*
X43664214Y42500000D02*
X53835786Y42500000D01*
X83500000Y59509214D02*
X84355786Y60365000D01*
X34000000Y55500000D02*
X34000000Y52164214D01*
X53835786Y42500000D02*
X55220786Y43885000D01*
X83500000Y57085786D02*
X83500000Y59509214D01*
X90000000Y53500000D02*
X87250000Y53500000D01*
X55220786Y43885000D02*
X70299214Y43885000D01*
X90830000Y54330000D02*
X90000000Y53500000D01*
X29890000Y57430000D02*
X32070000Y57430000D01*
X34000000Y52164214D02*
X43664214Y42500000D01*
X32070000Y57430000D02*
X34000000Y55500000D01*
X84355786Y60365000D02*
X86775000Y60365000D01*
X90830000Y57291948D02*
X90830000Y55575000D01*
X86775000Y60365000D02*
X87756948Y60365000D01*
X87250000Y53500000D02*
X87000000Y53750000D01*
X70299214Y43885000D02*
X83500000Y57085786D01*
%TO.N,/5V_CONTROL*%
X35000000Y57750000D02*
X32780000Y59970000D01*
X79050000Y63750000D02*
X79050000Y54050000D01*
X35000000Y52750000D02*
X35000000Y57750000D01*
X44250000Y43500000D02*
X35000000Y52750000D01*
X79050000Y54050000D02*
X69885000Y44885000D01*
X29890000Y59692742D02*
X29890000Y59750000D01*
X54806572Y44885000D02*
X53421572Y43500000D01*
X53421572Y43500000D02*
X44250000Y43500000D01*
X69885000Y44885000D02*
X54806572Y44885000D01*
X32780000Y59970000D02*
X29890000Y59970000D01*
%TO.N,/SCL*%
X32360000Y54890000D02*
X33000000Y54250000D01*
X55635000Y42885000D02*
X73635000Y42885000D01*
X33000000Y54250000D02*
X33000000Y51750000D01*
X33000000Y51750000D02*
X43500000Y41250000D01*
X43500000Y41250000D02*
X54000000Y41250000D01*
X54000000Y41250000D02*
X55635000Y42885000D01*
X73635000Y42885000D02*
X84500000Y53750000D01*
X88310000Y57560000D02*
X86775000Y59095000D01*
X88310000Y57560000D02*
X84500000Y53750000D01*
X29890000Y54890000D02*
X32360000Y54890000D01*
X89560000Y56310000D02*
X88310000Y57560000D01*
X89560000Y55575000D02*
X89560000Y56310000D01*
%TO.N,/DHT_1*%
X108000000Y20500000D02*
X109250000Y19250000D01*
X44585786Y20500000D02*
X108000000Y20500000D01*
X108230000Y13230000D02*
X107150000Y13230000D01*
X109250000Y19250000D02*
X109250000Y14250000D01*
X35595786Y29490000D02*
X44585786Y20500000D01*
X29890000Y29490000D02*
X35595786Y29490000D01*
X109250000Y14250000D02*
X108230000Y13230000D01*
%TO.N,/DHT_2*%
X97400000Y13230000D02*
X95270000Y13230000D01*
X34260000Y17500000D02*
X29890000Y21870000D01*
X91000000Y17500000D02*
X34260000Y17500000D01*
X95270000Y13230000D02*
X91000000Y17500000D01*
%TO.N,/3V3_SENSOR_CONTROL*%
X14200000Y34500000D02*
X12180000Y34500000D01*
X12180000Y34500000D02*
X12110000Y34570000D01*
%TD*%
M02*
